# Blender 5.2.0 LTS
# www.blender.org
mtllib Monkey.mtl
o Cylinder
v 0.000000 0.033501 -0.183578
v 0.000000 1.702117 -0.183578
v 0.047145 0.033501 -0.180051
v 0.047145 1.702117 -0.180051
v 0.092479 0.033501 -0.169604
v 0.092479 1.702117 -0.169604
v 0.134259 0.033501 -0.152640
v 0.134259 1.702117 -0.152640
v 0.170879 0.033501 -0.129809
v 0.170879 1.702117 -0.129809
v 0.200933 0.033501 -0.101991
v 0.200933 1.702117 -0.101991
v 0.223264 0.033501 -0.070252
v 0.223264 1.702117 -0.070252
v 0.237016 0.033501 -0.035814
v 0.237016 1.702117 -0.035814
v 0.241660 0.033501 0.000000
v 0.241660 1.702117 0.000000
v 0.237016 0.033501 0.035814
v 0.237016 1.702117 0.035814
v 0.223264 0.033501 0.070252
v 0.223264 1.702117 0.070252
v 0.200933 0.033501 0.101991
v 0.200933 1.702117 0.101991
v 0.170879 0.033501 0.129809
v 0.170879 1.702117 0.129809
v 0.134259 0.033501 0.152640
v 0.134259 1.702117 0.152640
v 0.092479 0.033501 0.169604
v 0.092479 1.702117 0.169604
v 0.047145 0.033501 0.180051
v 0.047145 1.702117 0.180051
v 0.000000 0.033501 0.183578
v 0.000000 1.702117 0.183578
v -0.047145 0.033501 0.180051
v -0.047145 1.702117 0.180051
v -0.092479 0.033501 0.169604
v -0.092479 1.702117 0.169604
v -0.134259 0.033501 0.152640
v -0.134259 1.702117 0.152640
v -0.170879 0.033501 0.129809
v -0.170879 1.702117 0.129809
v -0.200933 0.033501 0.101991
v -0.200933 1.702117 0.101991
v -0.223264 0.033501 0.070252
v -0.223264 1.702117 0.070252
v -0.237016 0.033501 0.035814
v -0.237016 1.702117 0.035814
v -0.241660 0.033501 0.000000
v -0.241660 1.702117 0.000000
v -0.237016 0.033501 -0.035814
v -0.237016 1.702117 -0.035814
v -0.223264 0.033501 -0.070252
v -0.223264 1.702117 -0.070252
v -0.200933 0.033501 -0.101991
v -0.200933 1.702117 -0.101991
v -0.170879 0.033501 -0.129809
v -0.170879 1.702117 -0.129809
v -0.134259 0.033501 -0.152640
v -0.134259 1.702117 -0.152640
v -0.092479 0.033501 -0.169604
v -0.092479 1.702117 -0.169604
v -0.047145 0.033501 -0.180051
v -0.047145 1.702117 -0.180051
vn 0.0746 -0.0000 -0.9972
vn 0.2246 -0.0000 -0.9745
vn 0.3762 -0.0000 -0.9265
vn 0.5290 -0.0000 -0.8486
vn 0.6793 -0.0000 -0.7339
vn 0.8178 -0.0000 -0.5754
vn 0.9287 -0.0000 -0.3708
vn 0.9917 -0.0000 -0.1286
vn 0.9917 -0.0000 0.1286
vn 0.9287 -0.0000 0.3708
vn 0.8178 -0.0000 0.5754
vn 0.6793 -0.0000 0.7339
vn 0.5290 -0.0000 0.8486
vn 0.3762 -0.0000 0.9265
vn 0.2246 -0.0000 0.9745
vn 0.0746 -0.0000 0.9972
vn -0.0746 -0.0000 0.9972
vn -0.2246 -0.0000 0.9745
vn -0.3762 -0.0000 0.9265
vn -0.5290 -0.0000 0.8486
vn -0.6793 -0.0000 0.7339
vn -0.8178 -0.0000 0.5754
vn -0.9287 -0.0000 0.3708
vn -0.9917 -0.0000 0.1286
vn -0.9917 -0.0000 -0.1286
vn -0.9287 -0.0000 -0.3708
vn -0.8178 -0.0000 -0.5754
vn -0.6793 -0.0000 -0.7339
vn -0.5290 -0.0000 -0.8486
vn -0.3762 -0.0000 -0.9265
vn -0.0000 1.0000 -0.0000
vn -0.2246 -0.0000 -0.9745
vn -0.0746 -0.0000 -0.9972
vn -0.0000 -1.0000 -0.0000
vt 1.000000 0.500000
vt 1.000000 1.000000
vt 0.968750 1.000000
vt 0.968750 0.500000
vt 0.937500 1.000000
vt 0.937500 0.500000
vt 0.906250 1.000000
vt 0.906250 0.500000
vt 0.875000 1.000000
vt 0.875000 0.500000
vt 0.843750 1.000000
vt 0.843750 0.500000
vt 0.812500 1.000000
vt 0.812500 0.500000
vt 0.781250 1.000000
vt 0.781250 0.500000
vt 0.750000 1.000000
vt 0.750000 0.500000
vt 0.718750 1.000000
vt 0.718750 0.500000
vt 0.687500 1.000000
vt 0.687500 0.500000
vt 0.656250 1.000000
vt 0.656250 0.500000
vt 0.625000 1.000000
vt 0.625000 0.500000
vt 0.593750 1.000000
vt 0.593750 0.500000
vt 0.562500 1.000000
vt 0.562500 0.500000
vt 0.531250 1.000000
vt 0.531250 0.500000
vt 0.500000 1.000000
vt 0.500000 0.500000
vt 0.468750 1.000000
vt 0.468750 0.500000
vt 0.437500 1.000000
vt 0.437500 0.500000
vt 0.406250 1.000000
vt 0.406250 0.500000
vt 0.375000 1.000000
vt 0.375000 0.500000
vt 0.343750 1.000000
vt 0.343750 0.500000
vt 0.312500 1.000000
vt 0.312500 0.500000
vt 0.281250 1.000000
vt 0.281250 0.500000
vt 0.250000 1.000000
vt 0.250000 0.500000
vt 0.218750 1.000000
vt 0.218750 0.500000
vt 0.187500 1.000000
vt 0.187500 0.500000
vt 0.156250 1.000000
vt 0.156250 0.500000
vt 0.125000 1.000000
vt 0.125000 0.500000
vt 0.093750 1.000000
vt 0.093750 0.500000
vt 0.062500 1.000000
vt 0.062500 0.500000
vt 0.296822 0.485388
vt 0.250000 0.490000
vt 0.203178 0.485388
vt 0.158156 0.471731
vt 0.116663 0.449553
vt 0.080294 0.419706
vt 0.050447 0.383337
vt 0.028269 0.341844
vt 0.014612 0.296822
vt 0.010000 0.250000
vt 0.014612 0.203178
vt 0.028269 0.158156
vt 0.050447 0.116663
vt 0.080294 0.080294
vt 0.116663 0.050447
vt 0.158156 0.028269
vt 0.203178 0.014612
vt 0.250000 0.010000
vt 0.296822 0.014612
vt 0.341844 0.028269
vt 0.383337 0.050447
vt 0.419706 0.080294
vt 0.449553 0.116663
vt 0.471731 0.158156
vt 0.485388 0.203178
vt 0.490000 0.250000
vt 0.485388 0.296822
vt 0.471731 0.341844
vt 0.449553 0.383337
vt 0.419706 0.419706
vt 0.383337 0.449553
vt 0.341844 0.471731
vt 0.031250 1.000000
vt 0.031250 0.500000
vt 0.000000 1.000000
vt 0.000000 0.500000
vt 0.750000 0.490000
vt 0.796822 0.485388
vt 0.841844 0.471731
vt 0.883337 0.449553
vt 0.919706 0.419706
vt 0.949553 0.383337
vt 0.971731 0.341844
vt 0.985388 0.296822
vt 0.990000 0.250000
vt 0.985388 0.203178
vt 0.971731 0.158156
vt 0.949553 0.116663
vt 0.919706 0.080294
vt 0.883337 0.050447
vt 0.841844 0.028269
vt 0.796822 0.014612
vt 0.750000 0.010000
vt 0.703178 0.014612
vt 0.658156 0.028269
vt 0.616663 0.050447
vt 0.580294 0.080294
vt 0.550447 0.116663
vt 0.528269 0.158156
vt 0.514612 0.203178
vt 0.510000 0.250000
vt 0.514612 0.296822
vt 0.528269 0.341844
vt 0.550447 0.383337
vt 0.580294 0.419706
vt 0.616663 0.449553
vt 0.658156 0.471731
vt 0.703178 0.485388
s 0
f 1/1/1 2/2/1 4/3/1 3/4/1
f 3/4/2 4/3/2 6/5/2 5/6/2
f 5/6/3 6/5/3 8/7/3 7/8/3
f 7/8/4 8/7/4 10/9/4 9/10/4
f 9/10/5 10/9/5 12/11/5 11/12/5
f 11/12/6 12/11/6 14/13/6 13/14/6
f 13/14/7 14/13/7 16/15/7 15/16/7
f 15/16/8 16/15/8 18/17/8 17/18/8
f 17/18/9 18/17/9 20/19/9 19/20/9
f 19/20/10 20/19/10 22/21/10 21/22/10
f 21/22/11 22/21/11 24/23/11 23/24/11
f 23/24/12 24/23/12 26/25/12 25/26/12
f 25/26/13 26/25/13 28/27/13 27/28/13
f 27/28/14 28/27/14 30/29/14 29/30/14
f 29/30/15 30/29/15 32/31/15 31/32/15
f 31/32/16 32/31/16 34/33/16 33/34/16
f 33/34/17 34/33/17 36/35/17 35/36/17
f 35/36/18 36/35/18 38/37/18 37/38/18
f 37/38/19 38/37/19 40/39/19 39/40/19
f 39/40/20 40/39/20 42/41/20 41/42/20
f 41/42/21 42/41/21 44/43/21 43/44/21
f 43/44/22 44/43/22 46/45/22 45/46/22
f 45/46/23 46/45/23 48/47/23 47/48/23
f 47/48/24 48/47/24 50/49/24 49/50/24
f 49/50/25 50/49/25 52/51/25 51/52/25
f 51/52/26 52/51/26 54/53/26 53/54/26
f 53/54/27 54/53/27 56/55/27 55/56/27
f 55/56/28 56/55/28 58/57/28 57/58/28
f 57/58/29 58/57/29 60/59/29 59/60/29
f 59/60/30 60/59/30 62/61/30 61/62/30
f 4/63/31 2/64/31 64/65/31 62/66/31 60/67/31 58/68/31 56/69/31 54/70/31 52/71/31 50/72/31 48/73/31 46/74/31 44/75/31 42/76/31 40/77/31 38/78/31 36/79/31 34/80/31 32/81/31 30/82/31 28/83/31 26/84/31 24/85/31 22/86/31 20/87/31 18/88/31 16/89/31 14/90/31 12/91/31 10/92/31 8/93/31 6/94/31
f 61/62/32 62/61/32 64/95/32 63/96/32
f 63/96/33 64/95/33 2/97/33 1/98/33
f 1/99/34 3/100/34 5/101/34 7/102/34 9/103/34 11/104/34 13/105/34 15/106/34 17/107/34 19/108/34 21/109/34 23/110/34 25/111/34 27/112/34 29/113/34 31/114/34 33/115/34 35/116/34 37/117/34 39/118/34 41/119/34 43/120/34 45/121/34 47/122/34 49/123/34 51/124/34 53/125/34 55/126/34 57/127/34 59/128/34 61/129/34 63/130/34
o Suzanne
v 0.260587 1.674933 0.456028
v -0.260587 1.674933 0.456028
v 0.297814 1.633053 0.409495
v -0.297814 1.633053 0.409495
v 0.325734 1.609787 0.344348
v -0.325734 1.609787 0.344348
v 0.209401 1.563253 0.367614
v -0.209401 1.563253 0.367614
v 0.209401 1.595827 0.428108
v -0.209401 1.595827 0.428108
v 0.209401 1.656320 0.465335
v -0.209401 1.656320 0.465335
v 0.162867 1.674933 0.474641
v -0.162867 1.674933 0.474641
v 0.120987 1.633053 0.442068
v -0.120987 1.633053 0.442068
v 0.093067 1.609787 0.386228
v -0.093067 1.609787 0.386228
v 0.046533 1.721467 0.390881
v -0.046533 1.721467 0.390881
v 0.083760 1.721467 0.442068
v -0.083760 1.721467 0.442068
v 0.144254 1.721467 0.474641
v -0.144254 1.721467 0.474641
v 0.162867 1.772654 0.474641
v -0.162867 1.772654 0.474641
v 0.120987 1.809880 0.442068
v -0.120987 1.809880 0.442068
v 0.093067 1.837801 0.386228
v -0.093067 1.837801 0.386228
v 0.209401 1.884334 0.367614
v -0.209401 1.884334 0.367614
v 0.209401 1.847107 0.428108
v -0.209401 1.847107 0.428108
v 0.209401 1.791267 0.465335
v -0.209401 1.791267 0.465335
v 0.260587 1.772654 0.456028
v -0.260587 1.772654 0.456028
v 0.297814 1.809880 0.409495
v -0.297814 1.809880 0.409495
v 0.325734 1.837801 0.344348
v -0.325734 1.837801 0.344348
v 0.372268 1.721467 0.335041
v -0.372268 1.721467 0.335041
v 0.335041 1.721467 0.400188
v -0.335041 1.721467 0.400188
v 0.279201 1.721467 0.451375
v -0.279201 1.721467 0.451375
v 0.283854 1.721467 0.460681
v -0.283854 1.721467 0.460681
v 0.265241 1.777307 0.465335
v -0.265241 1.777307 0.465335
v 0.209401 1.800574 0.479295
v -0.209401 1.800574 0.479295
v 0.158214 1.777307 0.488601
v -0.158214 1.777307 0.488601
v 0.134947 1.721467 0.488601
v -0.134947 1.721467 0.488601
v 0.158214 1.670280 0.488601
v -0.158214 1.670280 0.488601
v 0.209401 1.721467 0.493255
v -0.209401 1.721467 0.493255
v 0.209401 1.647013 0.479295
v -0.209401 1.647013 0.479295
v 0.265241 1.670280 0.465335
v -0.265241 1.670280 0.465335
v 0.000000 1.833147 0.442068
v 0.000000 1.786614 0.488601
v 0.000000 1.172372 0.437415
v 0.000000 1.386426 0.465335
v 0.000000 1.465533 0.474641
v 0.000000 1.116532 0.428108
v 0.000000 1.819187 0.358308
v 0.000000 1.916908 0.339694
v 0.000000 2.112348 -0.325734
v 0.000000 1.912254 -0.507215
v 0.000000 1.619093 -0.493255
v 0.000000 1.349199 -0.209401
v 0.120987 1.465533 0.335041
v -0.120987 1.465533 0.335041
v 0.186134 1.316626 0.339694
v -0.186134 1.316626 0.339694
v 0.209401 1.163065 0.339694
v -0.209401 1.163065 0.339694
v 0.218707 1.046732 0.316428
v -0.218707 1.046732 0.316428
v 0.195441 1.014158 0.311774
v -0.195441 1.014158 0.311774
v 0.107027 1.000198 0.330388
v -0.107027 1.000198 0.330388
v 0.000000 0.990891 0.344348
v 0.260587 1.493453 0.316428
v -0.260587 1.493453 0.316428
v 0.376921 1.553946 0.321081
v -0.376921 1.553946 0.321081
v 0.493255 1.665627 0.265241
v -0.493255 1.665627 0.265241
v 0.511868 1.833147 0.353654
v -0.511868 1.833147 0.353654
v 0.423455 1.865721 0.372268
v -0.423455 1.865721 0.372268
v 0.293161 1.935521 0.409495
v -0.293161 1.935521 0.409495
v 0.190787 2.028588 0.437415
v -0.190787 2.028588 0.437415
v 0.093067 2.005321 0.451375
v -0.093067 2.005321 0.451375
v 0.037227 1.870374 0.446721
v -0.037227 1.870374 0.446721
v 0.097720 1.823841 0.460681
v -0.097720 1.823841 0.460681
v 0.074454 1.758694 0.456028
v -0.074454 1.758694 0.456028
v 0.120987 1.633053 0.442068
v -0.120987 1.633053 0.442068
v 0.223361 1.586520 0.418801
v -0.223361 1.586520 0.418801
v 0.293161 1.614440 0.400188
v -0.293161 1.614440 0.400188
v 0.372268 1.688894 0.386228
v -0.372268 1.688894 0.386228
v 0.381574 1.754040 0.386228
v -0.381574 1.754040 0.386228
v 0.358308 1.800574 0.395535
v -0.358308 1.800574 0.395535
v 0.255934 1.837801 0.428108
v -0.255934 1.837801 0.428108
v 0.148907 1.856414 0.451375
v -0.148907 1.856414 0.451375
v 0.000000 1.121185 0.437415
v 0.065147 1.149105 0.437415
v -0.065147 1.149105 0.437415
v 0.069800 1.079305 0.423455
v -0.069800 1.079305 0.423455
v 0.037227 1.051385 0.414148
v -0.037227 1.051385 0.414148
v 0.000000 1.046732 0.409495
v 0.000000 1.460879 0.446721
v 0.000000 1.493453 0.442068
v 0.060494 1.488800 0.442068
v -0.060494 1.488800 0.442068
v 0.074454 1.442266 0.446721
v -0.074454 1.442266 0.446721
v 0.051187 1.405039 0.442068
v -0.051187 1.405039 0.442068
v 0.237321 1.549293 0.400188
v -0.237321 1.549293 0.400188
v 0.367614 1.609787 0.372268
v -0.367614 1.609787 0.372268
v 0.432761 1.698200 0.358308
v -0.432761 1.698200 0.358308
v 0.442068 1.800574 0.390881
v -0.442068 1.800574 0.390881
v 0.409495 1.823841 0.432761
v -0.409495 1.823841 0.432761
v 0.260587 1.902947 0.474641
v -0.260587 1.902947 0.474641
v 0.186134 1.958788 0.497908
v -0.186134 1.958788 0.497908
v 0.120987 1.944828 0.507215
v -0.120987 1.944828 0.507215
v 0.060494 1.833147 0.502562
v -0.060494 1.833147 0.502562
v 0.074454 1.516720 0.483948
v -0.074454 1.516720 0.483948
v 0.125640 1.311972 0.423455
v -0.125640 1.311972 0.423455
v 0.148907 1.158412 0.409495
v -0.148907 1.158412 0.409495
v 0.158214 1.088612 0.395535
v -0.158214 1.088612 0.395535
v 0.139600 1.032772 0.376921
v -0.139600 1.032772 0.376921
v 0.097720 1.023465 0.376921
v -0.097720 1.023465 0.376921
v 0.000000 1.014158 0.381574
v 0.000000 1.605133 0.432761
v 0.000000 1.702854 0.456028
v 0.195441 1.861067 0.442068
v -0.195441 1.861067 0.442068
v 0.097720 1.660973 0.446721
v -0.097720 1.660973 0.446721
v 0.079107 1.702854 0.451375
v -0.079107 1.702854 0.451375
v 0.069800 1.167719 0.437415
v -0.069800 1.167719 0.437415
v 0.046533 1.311972 0.446721
v -0.046533 1.311972 0.446721
v 0.000000 1.311972 0.446721
v 0.000000 1.381773 0.442068
v 0.055840 1.414346 0.465335
v -0.055840 1.414346 0.465335
v 0.079107 1.442266 0.474641
v -0.079107 1.442266 0.474641
v 0.065147 1.498106 0.465335
v -0.065147 1.498106 0.465335
v 0.023267 1.502760 0.465335
v -0.023267 1.502760 0.465335
v 0.000000 1.456226 0.493255
v 0.027920 1.488800 0.483948
v -0.027920 1.488800 0.483948
v 0.055840 1.484146 0.483948
v -0.055840 1.484146 0.483948
v 0.065147 1.442266 0.493255
v -0.065147 1.442266 0.493255
v 0.046533 1.428306 0.479295
v -0.046533 1.428306 0.479295
v 0.000000 1.405039 0.479295
v 0.153560 1.391079 0.330388
v -0.153560 1.391079 0.330388
v 0.097720 1.432959 0.423455
v -0.097720 1.432959 0.423455
v 0.107027 1.391079 0.423455
v -0.107027 1.391079 0.423455
v 0.139600 1.428306 0.330388
v -0.139600 1.428306 0.330388
v 0.000000 1.056038 0.409495
v 0.027920 1.060692 0.409495
v -0.027920 1.060692 0.409495
v 0.055840 1.088612 0.423455
v -0.055840 1.088612 0.423455
v 0.055840 1.135145 0.432761
v -0.055840 1.135145 0.432761
v 0.000000 1.111878 0.390881
v 0.055840 1.130492 0.395535
v -0.055840 1.130492 0.395535
v 0.055840 1.093265 0.381574
v -0.055840 1.093265 0.381574
v 0.027920 1.069998 0.376921
v -0.027920 1.069998 0.376921
v 0.000000 1.065345 0.376921
v 0.102374 1.707507 0.465335
v -0.102374 1.707507 0.465335
v 0.111680 1.670280 0.460681
v -0.111680 1.670280 0.460681
v 0.200094 1.833147 0.451375
v -0.200094 1.833147 0.451375
v 0.162867 1.828494 0.460681
v -0.162867 1.828494 0.460681
v 0.251281 1.814534 0.460681
v -0.251281 1.814534 0.460681
v 0.335041 1.786614 0.414148
v -0.335041 1.786614 0.414148
v 0.349001 1.749387 0.409495
v -0.349001 1.749387 0.409495
v 0.344348 1.693547 0.404841
v -0.344348 1.693547 0.404841
v 0.283854 1.637707 0.428108
v -0.283854 1.637707 0.428108
v 0.223361 1.614440 0.442068
v -0.223361 1.614440 0.442068
v 0.134947 1.642360 0.465335
v -0.134947 1.642360 0.465335
v 0.107027 1.754040 0.465335
v -0.107027 1.754040 0.465335
v 0.125640 1.800574 0.465335
v -0.125640 1.800574 0.465335
v 0.139600 1.791267 0.451375
v -0.139600 1.791267 0.451375
v 0.116334 1.754040 0.451375
v -0.116334 1.754040 0.451375
v 0.144254 1.651667 0.451375
v -0.144254 1.651667 0.451375
v 0.223361 1.628400 0.432761
v -0.223361 1.628400 0.432761
v 0.274547 1.647013 0.418801
v -0.274547 1.647013 0.418801
v 0.325734 1.702854 0.400188
v -0.325734 1.702854 0.400188
v 0.330388 1.744734 0.400188
v -0.330388 1.744734 0.400188
v 0.316428 1.777307 0.404841
v -0.316428 1.777307 0.404841
v 0.246627 1.809880 0.446721
v -0.246627 1.809880 0.446721
v 0.167520 1.814534 0.456028
v -0.167520 1.814534 0.456028
v 0.200094 1.819187 0.446721
v -0.200094 1.819187 0.446721
v 0.120987 1.679587 0.446721
v -0.120987 1.679587 0.446721
v 0.116334 1.712160 0.446721
v -0.116334 1.712160 0.446721
v 0.065147 1.851761 0.362961
v -0.065147 1.851761 0.362961
v 0.116334 1.972748 0.367614
v -0.116334 1.972748 0.367614
v 0.200094 1.986708 0.353654
v -0.200094 1.986708 0.353654
v 0.288508 1.907601 0.330388
v -0.288508 1.907601 0.330388
v 0.404841 1.847107 0.293161
v -0.404841 1.847107 0.293161
v 0.474641 1.819187 0.274547
v -0.474641 1.819187 0.274547
v 0.460681 1.674933 0.223361
v -0.460681 1.674933 0.223361
v 0.358308 1.577213 0.246627
v -0.358308 1.577213 0.246627
v 0.260587 1.521373 0.279201
v -0.260587 1.521373 0.279201
v 0.000000 2.112348 0.172174
v 0.000000 2.163535 -0.046533
v 0.000000 1.460879 -0.400188
v 0.000000 1.302666 0.111680
v 0.000000 0.995545 0.274547
v 0.000000 1.097918 0.204747
v 0.000000 1.237519 0.190787
v 0.000000 1.288706 0.167520
v 0.507215 1.716814 0.032573
v -0.507215 1.716814 0.032573
v 0.511868 1.768000 -0.027920
v -0.511868 1.768000 -0.027920
v 0.460681 1.735427 -0.260587
v -0.460681 1.735427 -0.260587
v 0.274547 1.837801 -0.418801
v -0.274547 1.837801 -0.418801
v 0.437415 1.549293 0.041880
v -0.437415 1.549293 0.041880
v 0.353654 1.502760 -0.097720
v -0.353654 1.502760 -0.097720
v 0.381574 1.572560 -0.255934
v -0.381574 1.572560 -0.255934
v 0.200094 1.609787 -0.395535
v -0.200094 1.609787 -0.395535
v 0.139600 1.367813 0.241974
v -0.139600 1.367813 0.241974
v 0.107027 1.330586 0.153560
v -0.107027 1.330586 0.153560
v 0.172174 1.153759 0.228014
v -0.172174 1.153759 0.228014
v 0.148907 1.279399 0.232667
v -0.148907 1.279399 0.232667
v 0.195441 1.032772 0.237321
v -0.195441 1.032772 0.237321
v 0.083760 1.125839 0.218707
v -0.083760 1.125839 0.218707
v 0.074454 1.256132 0.214054
v -0.074454 1.256132 0.214054
v 0.097720 1.014158 0.260587
v -0.097720 1.014158 0.260587
v 0.130294 1.409693 0.255934
v -0.130294 1.409693 0.255934
v 0.125640 1.442266 0.279201
v -0.125640 1.442266 0.279201
v 0.120987 1.474840 0.297814
v -0.120987 1.474840 0.297814
v 0.125640 1.344546 0.097720
v -0.125640 1.344546 0.097720
v 0.176827 1.391079 -0.158214
v -0.176827 1.391079 -0.158214
v 0.204747 1.488800 -0.321081
v -0.204747 1.488800 -0.321081
v 0.269894 2.093735 -0.228014
v -0.269894 2.093735 -0.228014
v 0.269894 2.130961 -0.041880
v -0.269894 2.130961 -0.041880
v 0.269894 2.084428 0.139600
v -0.269894 2.084428 0.139600
v 0.274547 1.888987 0.255934
v -0.274547 1.888987 0.255934
v 0.432761 1.819187 0.200094
v -0.432761 1.819187 0.200094
v 0.376921 1.847107 0.167520
v -0.376921 1.847107 0.167520
v 0.381574 1.996014 0.032573
v -0.381574 1.996014 0.032573
v 0.474641 1.912254 0.074454
v -0.474641 1.912254 0.074454
v 0.474641 1.944828 -0.069800
v -0.474641 1.944828 -0.069800
v 0.381574 2.023934 -0.116334
v -0.381574 2.023934 -0.116334
v 0.381574 1.982054 -0.265241
v -0.381574 1.982054 -0.265241
v 0.474641 1.898294 -0.214054
v -0.474641 1.898294 -0.214054
v 0.367614 1.772654 -0.349001
v -0.367614 1.772654 -0.349001
v 0.288508 1.591173 -0.325734
v -0.288508 1.591173 -0.325734
v 0.488601 1.772654 -0.120987
v -0.488601 1.772654 -0.120987
v 0.241974 1.474840 0.088414
v -0.241974 1.474840 0.088414
v 0.255934 1.460879 -0.125640
v -0.255934 1.460879 -0.125640
v 0.530482 1.819187 -0.139600
v -0.530482 1.819187 -0.139600
v 0.460681 1.493453 -0.074454
v -0.460681 1.493453 -0.074454
v 0.618895 1.516720 -0.195441
v -0.618895 1.516720 -0.195441
v 0.763149 1.609787 -0.255934
v -0.763149 1.609787 -0.255934
v 0.805029 1.768000 -0.251281
v -0.805029 1.768000 -0.251281
v 0.735229 1.879681 -0.251281
v -0.735229 1.879681 -0.251281
v 0.609589 1.861067 -0.186134
v -0.609589 1.861067 -0.186134
v 0.604935 1.823841 -0.172174
v -0.604935 1.823841 -0.172174
v 0.707309 1.837801 -0.232667
v -0.707309 1.837801 -0.232667
v 0.753842 1.749387 -0.241974
v -0.753842 1.749387 -0.241974
v 0.721269 1.623747 -0.241974
v -0.721269 1.623747 -0.241974
v 0.614242 1.553946 -0.181481
v -0.614242 1.553946 -0.181481
v 0.493255 1.535333 -0.079107
v -0.493255 1.535333 -0.079107
v 0.549095 1.791267 -0.130294
v -0.549095 1.791267 -0.130294
v 0.563055 1.758694 -0.172174
v -0.563055 1.758694 -0.172174
v 0.525828 1.563253 -0.125640
v -0.525828 1.563253 -0.125640
v 0.618895 1.577213 -0.218707
v -0.618895 1.577213 -0.218707
v 0.707309 1.633053 -0.265241
v -0.707309 1.633053 -0.265241
v 0.735229 1.726120 -0.265241
v -0.735229 1.726120 -0.265241
v 0.698002 1.791267 -0.260587
v -0.698002 1.791267 -0.260587
v 0.609589 1.781960 -0.214054
v -0.609589 1.781960 -0.214054
v 0.502562 1.749387 -0.125640
v -0.502562 1.749387 -0.125640
v 0.497908 1.679587 -0.162867
v -0.497908 1.679587 -0.162867
v 0.451375 1.633053 -0.162867
v -0.451375 1.633053 -0.162867
v 0.488601 1.628400 -0.162867
v -0.488601 1.628400 -0.162867
v 0.502562 1.586520 -0.162867
v -0.502562 1.586520 -0.162867
v 0.483948 1.567906 -0.162867
v -0.483948 1.567906 -0.162867
v 0.432761 1.577213 -0.041880
v -0.432761 1.577213 -0.041880
v 0.428108 1.563253 -0.102374
v -0.428108 1.563253 -0.102374
v 0.428108 1.600480 -0.111680
v -0.428108 1.600480 -0.111680
v 0.474641 1.698200 -0.125640
v -0.474641 1.698200 -0.125640
v 0.530482 1.721467 -0.158214
v -0.530482 1.721467 -0.158214
v 0.530482 1.716814 -0.190787
v -0.530482 1.716814 -0.190787
v 0.483948 1.567906 -0.190787
v -0.483948 1.567906 -0.190787
v 0.507215 1.586520 -0.190787
v -0.507215 1.586520 -0.190787
v 0.493255 1.623747 -0.190787
v -0.493255 1.623747 -0.190787
v 0.456028 1.633053 -0.190787
v -0.456028 1.633053 -0.190787
v 0.502562 1.679587 -0.190787
v -0.502562 1.679587 -0.190787
v 0.618895 1.772654 -0.246627
v -0.618895 1.772654 -0.246627
v 0.707309 1.781960 -0.288508
v -0.707309 1.781960 -0.288508
v 0.749189 1.721467 -0.293161
v -0.749189 1.721467 -0.293161
v 0.721269 1.628400 -0.288508
v -0.721269 1.628400 -0.288508
v 0.623549 1.577213 -0.251281
v -0.623549 1.577213 -0.251281
v 0.525828 1.567906 -0.158214
v -0.525828 1.567906 -0.158214
v 0.567708 1.749387 -0.204747
v -0.567708 1.749387 -0.204747
v 0.530482 1.642360 -0.195441
v -0.530482 1.642360 -0.195441
v 0.558402 1.614440 -0.200094
v -0.558402 1.614440 -0.200094
v 0.595628 1.651667 -0.218707
v -0.595628 1.651667 -0.218707
v 0.572362 1.679587 -0.209401
v -0.572362 1.679587 -0.209401
v 0.604935 1.716814 -0.223361
v -0.604935 1.716814 -0.223361
v 0.628202 1.688894 -0.228014
v -0.628202 1.688894 -0.228014
v 0.660775 1.702854 -0.232667
v -0.660775 1.702854 -0.232667
v 0.646815 1.740080 -0.232667
v -0.646815 1.740080 -0.232667
v 0.609589 1.837801 -0.288508
v -0.609589 1.837801 -0.288508
v 0.744536 1.856414 -0.325734
v -0.744536 1.856414 -0.325734
v 0.814336 1.754040 -0.297814
v -0.814336 1.754040 -0.297814
v 0.781762 1.609787 -0.316428
v -0.781762 1.609787 -0.316428
v 0.618895 1.526026 -0.293161
v -0.618895 1.526026 -0.293161
v 0.469988 1.502760 -0.195441
v -0.469988 1.502760 -0.195441
v 0.511868 1.805227 -0.228014
v -0.511868 1.805227 -0.228014
vn 0.6650 -0.2008 0.7194
vn -0.6650 -0.2008 0.7194
vn 0.8294 -0.3036 0.4689
vn -0.8294 -0.3036 0.4689
vn 0.4155 -0.7933 0.4449
vn -0.4155 -0.7933 0.4449
vn 0.3599 -0.5089 0.7820
vn -0.3599 -0.5089 0.7820
vn -0.0787 -0.5394 0.8384
vn 0.0787 -0.5394 0.8384
vn -0.2696 -0.8413 0.4685
vn 0.2696 -0.8413 0.4685
vn -0.7707 -0.3352 0.5420
vn 0.7707 -0.3352 0.5420
vn -0.4689 -0.1940 0.8617
vn 0.4689 -0.1940 0.8617
vn -0.4767 0.1907 0.8581
vn 0.4767 0.1907 0.8581
vn -0.7672 0.3264 0.5521
vn 0.7672 0.3264 0.5521
vn -0.2519 0.8173 0.5182
vn 0.2519 0.8173 0.5182
vn -0.0949 0.5696 0.8164
vn 0.0949 0.5696 0.8164
vn 0.3667 0.5370 0.7597
vn -0.3667 0.5370 0.7597
vn 0.4141 0.7672 0.4898
vn -0.4141 0.7672 0.4898
vn 0.8277 0.2952 0.4771
vn -0.8277 0.2952 0.4771
vn 0.6713 0.1971 0.7145
vn -0.6713 0.1971 0.7145
vn 0.8111 0.3244 -0.4867
vn -0.8111 0.3244 -0.4867
vn 0.2052 0.8206 -0.5334
vn -0.2052 0.8206 -0.5334
vn -0.4223 0.7806 -0.4607
vn 0.4223 0.7806 -0.4607
vn -0.8241 0.3225 -0.4658
vn 0.8241 0.3225 -0.4658
vn -0.8137 -0.3487 -0.4650
vn 0.8137 -0.3487 -0.4650
vn -0.4223 -0.7806 -0.4607
vn 0.4223 -0.7806 -0.4607
vn 0.2052 -0.8206 -0.5334
vn -0.2052 -0.8206 -0.5334
vn 0.7995 -0.3510 -0.4875
vn -0.7995 -0.3510 -0.4875
vn 0.4000 -0.0623 0.9144
vn -0.4000 -0.0623 0.9144
vn 0.3069 -0.1754 0.9354
vn -0.3069 -0.1754 0.9354
vn 0.0945 -0.1835 0.9785
vn -0.0945 -0.1835 0.9785
vn -0.0624 -0.0283 0.9977
vn 0.0624 -0.0283 0.9977
vn -0.0624 0.0260 0.9977
vn 0.0624 0.0260 0.9977
vn 0.0996 0.1729 0.9799
vn -0.0996 0.1729 0.9799
vn 0.3036 0.1656 0.9383
vn -0.3036 0.1656 0.9383
vn 0.4002 0.0572 0.9147
vn -0.4002 0.0572 0.9147
vn 0.1231 -0.8616 0.4924
vn -0.1231 -0.8616 0.4924
vn 0.2190 -0.8647 0.4520
vn -0.2190 -0.8647 0.4520
vn 0.5902 -0.4550 0.6668
vn -0.5902 -0.4550 0.6668
vn 0.7689 -0.0506 0.6374
vn -0.7689 -0.0506 0.6374
vn 0.7796 0.0900 0.6197
vn -0.7796 0.0900 0.6197
vn 0.3241 -0.8188 0.4739
vn -0.3241 -0.8188 0.4739
vn 0.3857 -0.6629 0.6417
vn -0.3857 -0.6629 0.6417
vn 0.6895 -0.4193 0.5906
vn -0.6895 -0.4193 0.5906
vn 0.6588 -0.3634 0.6588
vn -0.6588 -0.3634 0.6588
vn 0.5465 0.3707 0.7509
vn -0.5465 0.3707 0.7509
vn 0.5064 0.6464 0.5706
vn -0.5064 0.6464 0.5706
vn 0.6092 0.5167 0.6015
vn -0.6092 0.5167 0.6015
vn -0.0441 0.6610 0.7491
vn 0.0441 0.6610 0.7491
vn -0.7246 0.3187 0.6110
vn 0.7246 0.3187 0.6110
vn -0.5880 0.5554 0.5880
vn 0.5880 0.5554 0.5880
vn 0.5361 -0.3909 0.7482
vn -0.5361 -0.3909 0.7482
vn 0.2207 -0.4690 0.8552
vn -0.2207 -0.4690 0.8552
vn -0.0794 -0.5321 0.8429
vn 0.0794 -0.5321 0.8429
vn -0.0825 -0.6575 0.7490
vn 0.0825 -0.6575 0.7490
vn 0.0457 -0.5667 0.8226
vn -0.0457 -0.5667 0.8226
vn 0.2784 -0.2130 0.9365
vn -0.2784 -0.2130 0.9365
vn 0.3813 -0.1824 0.9063
vn -0.3813 -0.1824 0.9063
vn 0.3357 -0.2878 0.8969
vn -0.3357 -0.2878 0.8969
vn 0.3762 0.0603 0.9246
vn -0.3762 0.0603 0.9246
vn -0.1352 0.2680 0.9539
vn 0.1352 0.2680 0.9539
vn 0.3961 -0.4321 0.8102
vn -0.3961 -0.4321 0.8102
vn 0.1856 -0.2474 0.9510
vn -0.1856 -0.2474 0.9510
vn 0.0099 -0.1948 0.9808
vn -0.0099 -0.1948 0.9808
vn 0.0721 -0.6966 0.7138
vn -0.0721 -0.6966 0.7138
vn 0.1863 -0.5723 0.7986
vn -0.1863 -0.5723 0.7986
vn 0.3157 -0.2708 0.9094
vn -0.3157 -0.2708 0.9094
vn 0.3063 -0.0265 0.9516
vn -0.3063 -0.0265 0.9516
vn 0.3266 -0.1306 0.9361
vn -0.3266 -0.1306 0.9361
vn -0.0137 0.0574 0.9983
vn 0.0137 0.0574 0.9983
vn -0.0026 -0.0656 0.9978
vn 0.0026 -0.0656 0.9978
vn -0.0000 -0.0000 1.0000
vn 0.8174 -0.5744 -0.0442
vn -0.8174 -0.5744 -0.0442
vn 0.9494 0.2297 -0.2144
vn -0.9494 0.2297 -0.2144
vn 0.0825 0.9073 -0.4124
vn -0.0825 0.9073 -0.4124
vn -0.8836 0.3555 0.3047
vn 0.8836 0.3555 0.3047
vn 0.4207 -0.8797 0.2218
vn -0.4207 -0.8797 0.2218
vn 0.2873 -0.5747 0.7663
vn -0.2873 -0.5747 0.7663
vn -0.6542 0.6019 0.4580
vn 0.6542 0.6019 0.4580
vn 0.1052 0.7892 0.6051
vn -0.1052 0.7892 0.6051
vn 0.7582 0.2916 0.5832
vn -0.7582 0.2916 0.5832
vn 0.3889 -0.7130 0.5834
vn -0.3889 -0.7130 0.5834
vn 0.0463 0.2314 0.9718
vn -0.0463 0.2314 0.9718
vn 0.0335 -0.4018 0.9151
vn -0.0335 -0.4018 0.9151
vn -0.4452 -0.1610 0.8809
vn 0.4452 -0.1610 0.8809
vn -0.2182 -0.4364 0.8729
vn 0.2182 -0.4364 0.8729
vn 0.4341 -0.1290 0.8916
vn -0.4341 -0.1290 0.8916
vn 0.3008 0.0501 0.9524
vn -0.3008 0.0501 0.9524
vn 0.8123 0.3010 0.4996
vn -0.8123 0.3010 0.4996
vn 0.8753 0.2574 0.4093
vn -0.8753 0.2574 0.4093
vn 0.9385 0.1601 0.3060
vn -0.9385 0.1601 0.3060
vn 0.2237 -0.6539 0.7227
vn -0.2237 -0.6539 0.7227
vn -0.1536 -0.1997 0.9677
vn 0.1536 -0.1997 0.9677
vn -0.2733 -0.1025 0.9565
vn 0.2733 -0.1025 0.9565
vn -0.0976 0.1952 0.9759
vn 0.0976 0.1952 0.9759
vn -0.1582 0.9494 0.2713
vn 0.1582 0.9494 0.2713
vn -0.6934 0.7082 0.1328
vn 0.6934 0.7082 0.1328
vn -1.0000 -0.0000 -0.0000
vn 1.0000 -0.0000 -0.0000
vn 0.3051 -0.9450 0.1181
vn -0.3051 -0.9450 0.1181
vn 0.0298 -0.2981 0.9541
vn -0.0298 -0.2981 0.9541
vn 0.1353 -0.3479 0.9277
vn -0.1353 -0.3479 0.9277
vn -0.5085 -0.2755 0.8158
vn 0.5085 -0.2755 0.8158
vn -0.3843 -0.0419 0.9223
vn 0.3843 -0.0419 0.9223
vn -0.2083 0.0374 0.9774
vn 0.2083 0.0374 0.9774
vn -0.5721 -0.4767 0.6674
vn 0.5721 -0.4767 0.6674
vn -0.1369 -0.7531 0.6435
vn 0.1369 -0.7531 0.6435
vn 0.4088 -0.6071 0.6814
vn -0.4088 -0.6071 0.6814
vn 0.5740 -0.4130 0.7070
vn -0.5740 -0.4130 0.7070
vn 0.5665 -0.0968 0.8183
vn -0.5665 -0.0968 0.8183
vn 0.5703 0.1180 0.8129
vn -0.5703 0.1180 0.8129
vn 0.4823 0.5621 0.6719
vn -0.4823 0.5621 0.6719
vn 0.2604 0.6114 0.7473
vn -0.2604 0.6114 0.7473
vn 0.1640 0.3607 0.9182
vn -0.1640 0.3607 0.9182
vn -0.0178 0.2495 0.9682
vn 0.0178 0.2495 0.9682
vn 0.3273 -0.4166 0.8481
vn -0.3273 -0.4166 0.8481
vn 0.2811 -0.2610 0.9235
vn -0.2811 -0.2610 0.9235
vn -0.2542 -0.6514 0.7149
vn 0.2542 -0.6514 0.7149
vn -0.0260 -0.8455 0.5333
vn 0.0260 -0.8455 0.5333
vn -0.3518 -0.2606 0.8991
vn 0.3518 -0.2606 0.8991
vn -0.3523 -0.0110 0.9358
vn 0.3523 -0.0110 0.9358
vn -0.1317 0.4608 0.8777
vn 0.1317 0.4608 0.8777
vn -0.0342 0.6159 0.7870
vn 0.0342 0.6159 0.7870
vn 0.3603 0.5836 0.7277
vn -0.3603 0.5836 0.7277
vn 0.4988 0.5300 0.6858
vn -0.4988 0.5300 0.6858
vn 0.6667 -0.3333 0.6667
vn -0.6667 -0.3333 0.6667
vn 0.8165 -0.0731 0.5727
vn -0.8165 -0.0731 0.5727
vn 0.7840 0.1161 0.6098
vn -0.7840 0.1161 0.6098
vn -0.5306 0.8111 -0.2461
vn 0.5306 0.8111 -0.2461
vn -0.8511 0.3695 -0.3730
vn 0.8511 0.3695 -0.3730
vn -0.2446 0.8675 -0.4331
vn 0.2446 0.8675 -0.4331
vn 0.5924 0.7465 -0.3030
vn -0.5924 0.7465 -0.3030
vn 0.3685 0.8758 -0.3118
vn -0.3685 0.8758 -0.3118
vn 0.2821 0.9151 -0.2880
vn -0.2821 0.9151 -0.2880
vn 0.8561 0.1340 -0.4991
vn -0.8561 0.1340 -0.4991
vn 0.5342 -0.7233 -0.4376
vn -0.5342 -0.7233 -0.4376
vn 0.3849 -0.8131 -0.4368
vn -0.3849 -0.8131 -0.4368
vn 0.2335 -0.5806 -0.7800
vn -0.2335 -0.5806 -0.7800
vn 0.2449 -0.0583 -0.9678
vn -0.2449 -0.0583 -0.9678
vn 0.1163 -0.4535 -0.8837
vn -0.1163 -0.4535 -0.8837
vn 0.1152 -0.9836 -0.1388
vn -0.1152 -0.9836 -0.1388
vn 0.1184 -0.9669 -0.2260
vn -0.1184 -0.9669 -0.2260
vn 0.9597 -0.0085 -0.2808
vn -0.9597 -0.0085 -0.2808
vn 0.9319 0.1629 -0.3242
vn -0.9319 0.1629 -0.3242
vn 0.1626 0.0207 -0.9865
vn -0.1626 0.0207 -0.9865
vn -0.0188 -0.2177 -0.9758
vn 0.0188 -0.2177 -0.9758
vn 0.7538 -0.2926 -0.5884
vn -0.7538 -0.2926 -0.5884
vn 0.9196 0.1379 -0.3678
vn -0.9196 0.1379 -0.3678
vn 0.9297 0.3127 -0.1944
vn -0.9297 0.3127 -0.1944
vn 0.9120 0.3376 -0.2329
vn -0.9120 0.3376 -0.2329
vn 0.9407 0.3338 -0.0607
vn -0.9407 0.3338 -0.0607
vn 0.1761 -0.8805 -0.4402
vn -0.1761 -0.8805 -0.4402
vn 0.3708 -0.4733 -0.7991
vn -0.3708 -0.4733 -0.7991
vn 0.3107 -0.8284 -0.4660
vn -0.3107 -0.8284 -0.4660
vn 0.2793 -0.9515 -0.1287
vn -0.2793 -0.9515 -0.1287
vn 0.3139 -0.9321 -0.1807
vn -0.3139 -0.9321 -0.1807
vn 0.9762 -0.2083 -0.0609
vn -0.9762 -0.2083 -0.0609
vn 0.8267 -0.5066 0.2447
vn -0.8267 -0.5066 0.2447
vn 0.3449 -0.1158 -0.9315
vn -0.3449 -0.1158 -0.9315
vn 0.1203 0.9644 0.2355
vn -0.1203 0.9644 0.2355
vn 0.1275 0.9744 -0.1851
vn -0.1275 0.9744 -0.1851
vn 0.3492 0.5947 -0.7241
vn -0.3492 0.5947 -0.7241
vn 0.4153 0.8981 -0.1449
vn -0.4152 0.8981 -0.1449
vn 0.1845 0.7036 0.6863
vn -0.1845 0.7036 0.6863
vn 0.6056 0.7794 0.1608
vn -0.6056 0.7794 0.1608
vn 0.7033 0.6806 -0.2053
vn -0.7033 0.6806 -0.2053
vn 0.6679 0.2007 -0.7166
vn -0.6679 0.2007 -0.7166
vn 0.4948 0.4342 -0.7528
vn -0.4948 0.4342 -0.7528
vn 0.6423 0.7459 -0.1761
vn -0.6423 0.7459 -0.1761
vn 0.7182 0.6788 0.1530
vn -0.7182 0.6788 0.1530
vn 0.7388 0.3972 0.5444
vn -0.7388 0.3972 0.5444
vn 0.3428 0.9261 -0.1579
vn -0.3428 0.9261 -0.1579
vn 0.2270 0.5740 0.7867
vn -0.2270 0.5740 0.7867
vn -0.1722 0.1046 -0.9795
vn 0.1722 0.1046 -0.9795
vn 0.0425 0.9150 0.4013
vn -0.0425 0.9150 0.4013
vn -0.1616 0.1847 0.9694
vn 0.1616 0.1847 0.9694
vn 0.9791 0.1973 0.0483
vn -0.9791 0.1973 0.0483
vn 0.9470 0.0918 0.3079
vn -0.9470 0.0918 0.3079
vn 0.9794 0.1905 -0.0661
vn -0.9794 0.1905 -0.0661
vn 0.9938 0.0312 -0.1070
vn -0.9938 0.0312 -0.1070
vn 0.7116 -0.7008 0.0501
vn -0.7116 -0.7008 0.0501
vn 0.3722 -0.9243 0.0847
vn -0.3722 -0.9243 0.0847
vn 0.4465 -0.8644 0.2310
vn -0.4465 -0.8644 0.2310
vn 0.6066 -0.7578 0.2405
vn -0.6066 -0.7578 0.2405
vn 0.7325 -0.6368 0.2407
vn -0.7325 -0.6368 0.2407
vn 0.2637 -0.4499 0.8533
vn -0.2637 -0.4499 0.8533
vn 0.5568 -0.3181 -0.7673
vn -0.5568 -0.3181 -0.7673
vn 0.5004 -0.2807 -0.8190
vn -0.5004 -0.2807 -0.8190
vn 0.3190 -0.8494 -0.4205
vn -0.3190 -0.8494 -0.4205
vn 0.7198 -0.6356 -0.2793
vn -0.7198 -0.6356 -0.2793
vn 0.4972 -0.4408 -0.7473
vn -0.4972 -0.4408 -0.7473
vn 0.3506 0.3807 0.8557
vn -0.3506 0.3807 0.8557
vn 0.4566 0.1715 0.8730
vn -0.4566 0.1715 0.8730
vn 0.2583 0.1055 0.9603
vn -0.2583 0.1055 0.9603
vn 0.2455 -0.0802 0.9661
vn -0.2455 -0.0802 0.9661
vn 0.4643 -0.0599 0.8837
vn -0.4643 -0.0599 0.8837
vn 0.6225 -0.3045 0.7210
vn -0.6225 -0.3045 0.7210
vn 0.4500 0.6590 0.6027
vn -0.4500 0.6590 0.6027
vn -0.2667 0.8309 0.4884
vn 0.2667 0.8309 0.4884
vn -0.8284 0.2291 0.5111
vn 0.8284 0.2291 0.5111
vn -0.5251 -0.3566 0.7727
vn 0.5251 -0.3566 0.7727
vn 0.4546 -0.5665 0.6873
vn -0.4546 -0.5665 0.6873
vn 0.6996 -0.4497 0.5552
vn -0.6996 -0.4497 0.5552
vn 0.7220 -0.6827 -0.1126
vn -0.7220 -0.6827 -0.1126
vn -0.1919 0.2860 0.9388
vn 0.1919 0.2860 0.9388
vn 0.9048 -0.3734 -0.2047
vn -0.9048 -0.3734 -0.2047
vn 0.1034 0.1551 0.9825
vn -0.1034 0.1551 0.9825
vn 0.0841 0.9318 0.3530
vn -0.0841 0.9318 0.3530
vn 0.6446 -0.0883 0.7594
vn -0.6446 -0.0883 0.7594
vn 0.4309 0.4740 0.7678
vn -0.4309 0.4740 0.7678
vn 0.8032 -0.4847 0.3462
vn -0.8032 -0.4847 0.3462
vn 0.5811 -0.4128 0.7014
vn -0.5811 -0.4128 0.7014
vn 0.5910 -0.4305 0.6822
vn -0.5910 -0.4305 0.6822
vn 0.9818 -0.1804 -0.0591
vn -0.9818 -0.1804 -0.0591
vn 0.9105 -0.3965 -0.1175
vn -0.9105 -0.3965 -0.1175
vn 0.9972 -0.0181 -0.0725
vn -0.9972 -0.0181 -0.0725
vn 0.7313 -0.6543 0.1924
vn -0.7313 -0.6543 0.1924
vn 0.7867 -0.6079 0.1073
vn -0.7867 -0.6079 0.1073
vn 0.7022 -0.7022 0.1170
vn -0.7022 -0.7022 0.1170
vn 0.1840 0.9816 -0.0511
vn -0.1840 0.9816 -0.0511
vn 0.9352 0.3301 0.1284
vn -0.9352 0.3301 0.1284
vn 0.6633 -0.7463 0.0553
vn -0.6633 -0.7463 0.0553
vn -0.0085 0.9970 0.0767
vn 0.0085 0.9970 0.0767
vn 0.6237 -0.7061 0.3354
vn -0.6237 -0.7061 0.3354
vn 0.2733 -0.8925 0.3587
vn -0.2733 -0.8925 0.3587
vn -0.8328 -0.5080 -0.2200
vn 0.8328 -0.5080 -0.2200
vn -0.8339 0.2377 -0.4981
vn 0.8339 0.2377 -0.4981
vn -0.5655 0.7847 -0.2539
vn 0.5655 0.7847 -0.2539
vn -0.0560 0.9962 0.0672
vn 0.0560 0.9962 0.0672
vn 0.1445 0.0222 0.9893
vn -0.1445 0.0222 0.9893
vn 0.3275 0.0645 0.9427
vn -0.3275 0.0645 0.9427
vn 0.3127 0.0232 0.9496
vn -0.3127 0.0232 0.9496
vn 0.1710 0.0274 0.9849
vn -0.1710 0.0274 0.9849
vn 0.3487 0.2849 0.8929
vn -0.3487 0.2849 0.8929
vn 0.4006 -0.0343 0.9156
vn -0.4006 -0.0343 0.9156
vn 0.2572 -0.0603 0.9645
vn -0.2572 -0.0603 0.9645
vn 0.0637 -0.0106 0.9979
vn -0.0637 -0.0106 0.9979
vn -0.3637 0.7039 0.6101
vn 0.3637 0.7039 0.6101
vn 0.6299 0.0355 0.7759
vn -0.6299 0.0355 0.7759
vn 0.4472 -0.2002 0.8717
vn -0.4472 -0.2002 0.8717
vn 0.5072 -0.2141 0.8348
vn -0.5072 -0.2141 0.8348
vn 0.5258 0.2619 0.8093
vn -0.5258 0.2619 0.8093
vn 0.2980 0.5802 0.7580
vn -0.2980 0.5802 0.7580
vn 0.0930 -0.9924 -0.0805
vn -0.0930 -0.9924 -0.0805
vn 0.5006 -0.8657 0.0080
vn -0.5006 -0.8657 0.0080
vn 0.9285 -0.2497 0.2748
vn -0.9285 -0.2497 0.2748
vn 0.8393 0.5424 -0.0378
vn -0.8393 0.5424 -0.0378
vn -0.2355 0.9367 -0.2589
vn 0.2355 0.9367 -0.2589
vn -0.4499 0.8838 -0.1285
vn 0.4499 0.8838 -0.1285
vn -0.5384 -0.0098 -0.8427
vn 0.5384 -0.0098 -0.8427
vn -0.1910 -0.0241 -0.9813
vn 0.1910 -0.0241 -0.9813
vn 0.4046 0.0266 -0.9141
vn -0.4046 0.0266 -0.9141
vn -0.7819 0.6231 0.0197
vn 0.7819 0.6231 0.0197
vn 0.5428 -0.2063 -0.8142
vn -0.5428 -0.2063 -0.8142
vn -0.2474 -0.9231 -0.2945
vn 0.2474 -0.9231 -0.2945
vt 0.843250 0.588863
vt 0.833697 0.611927
vt 0.794218 0.611927
vt 0.815334 0.560948
vt 0.866314 0.937441
vt 0.866314 0.897962
vt 0.889378 0.888409
vt 0.917293 0.916324
vt 0.746541 0.611927
vt 0.781622 0.527235
vt 0.866314 0.985118
vt 0.951006 0.950037
vt 0.815334 0.662907
vt 0.781622 0.696619
vt 0.781622 0.950037
vt 0.815334 0.916325
vt 0.843250 0.634991
vt 0.843250 0.888409
vt 0.866314 0.644544
vt 0.866314 0.684023
vt 0.794218 0.865345
vt 0.833697 0.865345
vt 0.866314 0.731700
vt 0.746541 0.865345
vt 0.917293 0.662907
vt 0.951006 0.696619
vt 0.781622 0.780653
vt 0.815334 0.814366
vt 0.889378 0.634991
vt 0.843250 0.842281
vt 0.898931 0.611927
vt 0.938410 0.611927
vt 0.866314 0.793249
vt 0.866314 0.832728
vt 0.986087 0.611927
vt 0.866314 0.745572
vt 0.917294 0.560947
vt 0.951006 0.527235
vt 0.951006 0.780653
vt 0.917294 0.814365
vt 0.889378 0.588863
vt 0.889378 0.842281
vt 0.866314 0.579310
vt 0.866314 0.539831
vt 0.938410 0.865345
vt 0.898931 0.865345
vt 0.866314 0.492154
vt 0.986087 0.865345
vt 0.866314 0.585461
vt 0.847600 0.593213
vt 0.892780 0.865345
vt 0.885028 0.884059
vt 0.885028 0.593213
vt 0.885028 0.846631
vt 0.892780 0.611927
vt 0.866314 0.838879
vt 0.885028 0.630641
vt 0.847600 0.846631
vt 0.866314 0.638393
vt 0.839848 0.865345
vt 0.847600 0.630641
vt 0.847600 0.884059
vt 0.839848 0.611927
vt 0.866314 0.891811
vt 0.866314 0.611927
vt 0.866314 0.865345
vt 0.520711 0.060503
vt 0.517028 0.068490
vt 0.500000 0.064527
vt 0.500000 0.054411
vt 0.482972 0.068490
vt 0.479289 0.060503
vt 0.530457 0.065062
vt 0.522612 0.070678
vt 0.477388 0.070678
vt 0.469543 0.065062
vt 0.532878 0.067822
vt 0.526301 0.079422
vt 0.473699 0.079422
vt 0.467122 0.067822
vt 0.544695 0.083023
vt 0.529228 0.091098
vt 0.470772 0.091098
vt 0.455305 0.083023
vt 0.565647 0.115495
vt 0.537536 0.127779
vt 0.462464 0.127779
vt 0.434353 0.115495
vt 0.586916 0.172042
vt 0.626605 0.208159
vt 0.600470 0.238288
vt 0.535885 0.215568
vt 0.399530 0.238288
vt 0.373395 0.208159
vt 0.413084 0.172042
vt 0.464115 0.215568
vt 0.650908 0.240294
vt 0.636962 0.261221
vt 0.363038 0.261221
vt 0.349092 0.240294
vt 0.689501 0.268805
vt 0.655896 0.284413
vt 0.344104 0.284413
vt 0.310499 0.268805
vt 0.684517 0.317795
vt 0.659507 0.313152
vt 0.340493 0.313152
vt 0.315483 0.317795
vt 0.671357 0.334694
vt 0.649107 0.322437
vt 0.350893 0.322437
vt 0.328643 0.334694
vt 0.636775 0.370732
vt 0.613636 0.353108
vt 0.386364 0.353108
vt 0.363225 0.370732
vt 0.602261 0.395588
vt 0.594178 0.371277
vt 0.405822 0.371277
vt 0.397739 0.395588
vt 0.581044 0.398468
vt 0.577351 0.373341
vt 0.422649 0.373341
vt 0.418956 0.398468
vt 0.532016 0.387365
vt 0.539817 0.354339
vt 0.460183 0.354339
vt 0.467984 0.387365
vt 0.500000 0.382860
vt 0.500000 0.340417
vt 0.559135 0.334326
vt 0.579057 0.335646
vt 0.420943 0.335646
vt 0.440865 0.334326
vt 0.592090 0.332885
vt 0.407910 0.332885
vt 0.606163 0.325516
vt 0.393837 0.325516
vt 0.628251 0.311636
vt 0.371749 0.311636
vt 0.635551 0.300507
vt 0.364449 0.300507
vt 0.631484 0.283889
vt 0.368516 0.283889
vt 0.611331 0.264411
vt 0.388669 0.264411
vt 0.592372 0.254897
vt 0.407628 0.254897
vt 0.559669 0.267717
vt 0.440331 0.267717
vt 0.550878 0.277832
vt 0.500000 0.252445
vt 0.449122 0.277832
vt 0.544001 0.314523
vt 0.455999 0.314523
vt 0.500000 0.295691
vt 0.543637 0.293371
vt 0.456363 0.293371
vt 0.506819 0.075382
vt 0.500000 0.073497
vt 0.493181 0.075382
vt 0.511782 0.080633
vt 0.488218 0.080633
vt 0.512172 0.093457
vt 0.487828 0.093457
vt 0.514257 0.133422
vt 0.513874 0.097191
vt 0.486126 0.097191
vt 0.485743 0.133422
vt 0.520226 0.164615
vt 0.500000 0.157864
vt 0.500000 0.134352
vt 0.479774 0.164615
vt 0.500000 0.100063
vt 0.500000 0.091346
vt 0.530258 0.180239
vt 0.521901 0.181560
vt 0.517666 0.172353
vt 0.482334 0.172353
vt 0.478099 0.181560
vt 0.469742 0.180239
vt 0.523673 0.198817
vt 0.518957 0.194728
vt 0.481043 0.194728
vt 0.476327 0.198817
vt 0.500000 0.203867
vt 0.508211 0.197295
vt 0.491789 0.197295
vt 0.500000 0.197278
vt 0.500000 0.192167
vt 0.500000 0.165170
vt 0.513538 0.176949
vt 0.500000 0.171718
vt 0.486462 0.176949
vt 0.500000 0.186182
vt 0.508818 0.192407
vt 0.491182 0.192407
vt 0.515232 0.190709
vt 0.484768 0.190709
vt 0.516908 0.181873
vt 0.483092 0.181873
vt 0.544209 0.172814
vt 0.455791 0.172814
vt 0.541327 0.154899
vt 0.458673 0.154899
vt 0.578661 0.139176
vt 0.421339 0.139176
vt 0.583245 0.154155
vt 0.416755 0.154155
vt 0.500000 0.089977
vt 0.509911 0.090724
vt 0.490089 0.090724
vt 0.509713 0.082236
vt 0.490287 0.082236
vt 0.505196 0.077083
vt 0.494804 0.077083
vt 0.500000 0.075473
vt 0.503445 0.080840
vt 0.500000 0.080320
vt 0.496555 0.080840
vt 0.506660 0.083289
vt 0.493340 0.083289
vt 0.506822 0.086791
vt 0.493178 0.086791
vt 0.500000 0.085637
vt 0.562361 0.284338
vt 0.559190 0.294882
vt 0.437639 0.284338
vt 0.440810 0.294882
vt 0.563180 0.307151
vt 0.436820 0.307151
vt 0.570458 0.318697
vt 0.429542 0.318697
vt 0.569243 0.278245
vt 0.430757 0.278245
vt 0.589914 0.271772
vt 0.410086 0.271772
vt 0.602190 0.277180
vt 0.397810 0.277180
vt 0.617110 0.287175
vt 0.382890 0.287175
vt 0.618074 0.299197
vt 0.381926 0.299197
vt 0.615871 0.307438
vt 0.384129 0.307438
vt 0.598424 0.313725
vt 0.401576 0.313725
vt 0.590828 0.319797
vt 0.409172 0.319797
vt 0.582130 0.320991
vt 0.417870 0.320991
vt 0.578615 0.309394
vt 0.583998 0.312892
vt 0.421385 0.309394
vt 0.416002 0.312892
vt 0.589656 0.312336
vt 0.410344 0.312336
vt 0.596347 0.309249
vt 0.403653 0.309249
vt 0.606014 0.302517
vt 0.393986 0.302517
vt 0.607735 0.297520
vt 0.392265 0.297520
vt 0.606985 0.291216
vt 0.393015 0.291216
vt 0.598275 0.283083
vt 0.401725 0.283083
vt 0.589866 0.280167
vt 0.410134 0.280167
vt 0.576352 0.284624
vt 0.423648 0.284624
vt 0.572831 0.289915
vt 0.427169 0.289915
vt 0.573307 0.303342
vt 0.426693 0.303342
vt 0.572447 0.295716
vt 0.427553 0.295716
vt 0.529647 0.428636
vt 0.500000 0.428636
vt 0.470353 0.428636
vt 0.584616 0.428636
vt 0.415384 0.428636
vt 0.622301 0.417889
vt 0.377699 0.417889
vt 0.666214 0.388954
vt 0.333786 0.388954
vt 0.701481 0.344467
vt 0.298519 0.344467
vt 0.712163 0.315527
vt 0.287837 0.315527
vt 0.704305 0.260225
vt 0.295695 0.260225
vt 0.672947 0.224880
vt 0.327053 0.224880
vt 0.640497 0.198841
vt 0.359503 0.198841
vt 0.603553 0.023452
vt 0.625128 0.029461
vt 0.635753 0.082198
vt 0.598617 0.056841
vt 0.364247 0.082198
vt 0.374872 0.029461
vt 0.396447 0.023452
vt 0.401383 0.056841
vt 0.546781 0.009442
vt 0.556354 0.040906
vt 0.453219 0.009442
vt 0.443646 0.040906
vt 0.500000 0.033223
vt 0.527159 0.049514
vt 0.472841 0.049514
vt 0.537222 0.060794
vt 0.462778 0.060794
vt 0.558499 0.065137
vt 0.441501 0.065137
vt 0.588127 0.085177
vt 0.411873 0.085177
vt 0.607239 0.113940
vt 0.392761 0.113940
vt 0.612663 0.133675
vt 0.605467 0.151503
vt 0.394533 0.151503
vt 0.387337 0.133675
vt 0.600708 0.162985
vt 0.399292 0.162985
vt 0.922374 0.064228
vt 0.859647 0.117994
vt 0.823287 0.101559
vt 0.861342 0.027230
vt 0.176713 0.101559
vt 0.140353 0.117994
vt 0.077626 0.064228
vt 0.138658 0.027230
vt 0.765863 0.087001
vt 0.774604 0.010837
vt 0.234137 0.087001
vt 0.225396 0.010837
vt 0.661952 0.087561
vt 0.647010 0.028716
vt 0.338048 0.087561
vt 0.352990 0.028716
vt 0.743592 0.198572
vt 0.766410 0.233065
vt 0.256408 0.198572
vt 0.233590 0.233065
vt 0.987633 0.154243
vt 0.889478 0.177602
vt 0.110522 0.177602
vt 0.012367 0.154243
vt 0.899807 0.420886
vt 0.844317 0.347370
vt 0.881169 0.309153
vt 0.958963 0.357385
vt 0.118831 0.309153
vt 0.155683 0.347370
vt 0.100193 0.420886
vt 0.041037 0.357385
vt 0.903302 0.261367
vt 0.999860 0.253531
vt 0.096698 0.261367
vt 0.000140 0.253531
vt 0.724763 0.340212
vt 0.744725 0.304629
vt 0.766113 0.319494
vt 0.255275 0.304629
vt 0.275237 0.340212
vt 0.233887 0.319494
vt 0.793427 0.280495
vt 0.826663 0.297810
vt 0.206573 0.280495
vt 0.173337 0.297810
vt 0.823620 0.254612
vt 0.855331 0.267956
vt 0.176380 0.254612
vt 0.144669 0.267956
vt 0.835860 0.225225
vt 0.868309 0.233525
vt 0.164140 0.225225
vt 0.131691 0.233525
vt 0.813499 0.190705
vt 0.851288 0.181145
vt 0.148712 0.181145
vt 0.186501 0.190705
vt 0.772263 0.374010
vt 0.227737 0.374010
vt 0.744519 0.390057
vt 0.255481 0.390057
vt 0.824765 0.470987
vt 0.175235 0.470987
vt 0.792141 0.464714
vt 0.742181 0.461543
vt 0.726855 0.432574
vt 0.273145 0.432574
vt 0.257819 0.461543
vt 0.207859 0.464714
vt 0.795638 0.489991
vt 0.204362 0.489991
vt 0.786137 0.227788
vt 0.213863 0.227788
vt 0.802950 0.203415
vt 0.197050 0.203415
vt 0.769334 0.128771
vt 0.691484 0.146686
vt 0.230666 0.128771
vt 0.308516 0.146686
vt 0.780113 0.169386
vt 0.219887 0.169386
vt 0.803789 0.171181
vt 0.830917 0.139518
vt 0.169083 0.139518
vt 0.196211 0.171181
vt 0.574628 0.959188
vt 0.464516 0.959188
vt 0.477326 0.891852
vt 0.545439 0.884582
vt 0.272900 0.891852
vt 0.285710 0.959188
vt 0.175598 0.959188
vt 0.204787 0.884582
vt 0.605134 0.846978
vt 0.715894 0.897069
vt 0.145092 0.846978
vt 0.034332 0.897069
vt 0.605360 0.784410
vt 0.683874 0.757011
vt 0.144866 0.784410
vt 0.066352 0.757011
vt 0.574835 0.744212
vt 0.617867 0.719156
vt 0.175391 0.744212
vt 0.132359 0.719156
vt 0.534996 0.712528
vt 0.568728 0.682132
vt 0.215230 0.712528
vt 0.181498 0.682132
vt 0.483006 0.686791
vt 0.508539 0.641024
vt 0.267220 0.686791
vt 0.241687 0.641024
vt 0.513415 0.736977
vt 0.478880 0.719593
vt 0.271346 0.719593
vt 0.236811 0.736977
vt 0.541117 0.760754
vt 0.209109 0.760754
vt 0.557599 0.789442
vt 0.192627 0.789442
vt 0.553841 0.821849
vt 0.196385 0.821849
vt 0.524671 0.842380
vt 0.225555 0.842380
vt 0.485193 0.845321
vt 0.265033 0.845321
vt 0.786150 0.181127
vt 0.770208 0.191225
vt 0.213850 0.181127
vt 0.229792 0.191225
vt 0.408153 0.587507
vt 0.409610 0.674022
vt 0.342073 0.587507
vt 0.340616 0.674022
vt 0.400301 0.910556
vt 0.414155 0.878318
vt 0.336071 0.878318
vt 0.349925 0.910556
vt 0.443630 0.713731
vt 0.306596 0.713731
vt 0.429725 0.728622
vt 0.392812 0.710774
vt 0.357414 0.710774
vt 0.320501 0.728622
vt 0.422979 0.754609
vt 0.432640 0.746527
vt 0.327247 0.754609
vt 0.317586 0.746527
vt 0.427719 0.796173
vt 0.391578 0.815187
vt 0.358648 0.815187
vt 0.322507 0.796173
vt 0.448277 0.830976
vt 0.301949 0.830976
vt 0.797710 0.195652
vt 0.802580 0.199758
vt 0.197420 0.199758
vt 0.202290 0.195652
vt 0.789609 0.184671
vt 0.210391 0.184671
vt 0.466042 0.804091
vt 0.490498 0.816075
vt 0.284184 0.804091
vt 0.259728 0.816075
vt 0.448042 0.783921
vt 0.302184 0.783921
vt 0.438745 0.764960
vt 0.311481 0.764960
vt 0.445216 0.756351
vt 0.305010 0.756351
vt 0.449819 0.743458
vt 0.300407 0.743458
vt 0.456307 0.732687
vt 0.293919 0.732687
vt 0.475471 0.740871
vt 0.274755 0.740871
vt 0.514211 0.817769
vt 0.236015 0.817769
vt 0.527961 0.808598
vt 0.222265 0.808598
vt 0.530079 0.790754
vt 0.220147 0.790754
vt 0.518620 0.772385
vt 0.231606 0.772385
vt 0.498668 0.755033
vt 0.251558 0.755033
vt 0.468029 0.756171
vt 0.459660 0.770459
vt 0.282197 0.756171
vt 0.290566 0.770459
vt 0.487167 0.769899
vt 0.477354 0.785393
vt 0.263059 0.769899
vt 0.272872 0.785393
vt 0.504617 0.782999
vt 0.496545 0.797122
vt 0.245609 0.782999
vt 0.253681 0.797122
vt 0.516137 0.792591
vt 0.513713 0.804019
vt 0.234089 0.792591
vt 0.236513 0.804019
vt 0.574269 0.607668
vt 0.613510 0.655816
vt 0.175957 0.607668
vt 0.136716 0.655816
vt 0.644031 0.693270
vt 0.106195 0.693270
vt 0.668163 0.712097
vt 0.082063 0.712097
vt 0.727131 0.698475
vt 0.676584 0.686010
vt 0.023095 0.698475
vt 0.073642 0.686010
vt 0.729804 0.624370
vt 0.667013 0.640198
vt 0.020422 0.624370
vt 0.083213 0.640198
vt 0.721292 0.572934
vt 0.648152 0.594596
vt 0.028934 0.572934
vt 0.102074 0.594596
vt 0.630034 0.557583
vt 0.717709 0.538143
vt 0.032517 0.538143
vt 0.120192 0.557583
vt 0.526877 0.539235
vt 0.223349 0.539235
s 0
f 111/131/35 65/132/35 67/133/35 109/134/35
f 68/135/36 66/136/36 112/137/36 110/138/36
f 109/134/37 67/133/37 69/139/37 107/140/37
f 70/141/38 68/135/38 110/138/38 108/142/38
f 67/133/39 73/143/39 71/144/39 69/139/39
f 72/145/40 74/146/40 68/135/40 70/141/40
f 65/132/41 75/147/41 73/143/41 67/133/41
f 74/146/42 76/148/42 66/136/42 68/135/42
f 75/147/43 77/149/43 79/150/43 73/143/43
f 80/151/44 78/152/44 76/148/44 74/146/44
f 73/143/45 79/150/45 81/153/45 71/144/45
f 82/154/46 80/151/46 74/146/46 72/145/46
f 79/150/47 85/155/47 83/156/47 81/153/47
f 84/157/48 86/158/48 80/151/48 82/154/48
f 77/149/49 87/159/49 85/155/49 79/150/49
f 86/158/50 88/160/50 78/152/50 80/151/50
f 87/159/51 89/161/51 91/162/51 85/155/51
f 92/163/52 90/164/52 88/160/52 86/158/52
f 85/155/53 91/162/53 93/165/53 83/156/53
f 94/166/54 92/163/54 86/158/54 84/157/54
f 91/162/55 97/167/55 95/168/55 93/165/55
f 96/169/56 98/170/56 92/163/56 94/166/56
f 89/161/57 99/171/57 97/167/57 91/162/57
f 98/170/58 100/172/58 90/164/58 92/163/58
f 99/171/59 101/173/59 103/174/59 97/167/59
f 104/175/60 102/176/60 100/172/60 98/170/60
f 97/167/61 103/174/61 105/177/61 95/168/61
f 106/178/62 104/175/62 98/170/62 96/169/62
f 103/174/63 109/134/63 107/140/63 105/177/63
f 108/142/64 110/138/64 104/175/64 106/178/64
f 101/173/65 111/131/65 109/134/65 103/174/65
f 110/138/66 112/137/66 102/176/66 104/175/66
f 111/131/67 101/173/67 115/179/67 113/180/67
f 116/181/68 102/176/68 112/137/68 114/182/68
f 101/173/69 99/171/69 117/183/69 115/179/69
f 118/184/70 100/172/70 102/176/70 116/181/70
f 99/171/71 89/161/71 119/185/71 117/183/71
f 120/186/72 90/164/72 100/172/72 118/184/72
f 89/161/73 87/159/73 121/187/73 119/185/73
f 122/188/74 88/160/74 90/164/74 120/186/74
f 87/159/75 77/149/75 123/189/75 121/187/75
f 124/190/76 78/152/76 88/160/76 122/188/76
f 77/149/77 75/147/77 127/191/77 123/189/77
f 128/192/78 76/148/78 78/152/78 124/190/78
f 75/147/79 65/132/79 129/193/79 127/191/79
f 130/194/80 66/136/80 76/148/80 128/192/80
f 65/132/81 111/131/81 113/180/81 129/193/81
f 114/182/82 112/137/82 66/136/82 130/194/82
f 125/195/83 129/193/83 113/180/83
f 114/182/84 130/194/84 126/196/84
f 127/191/85 129/193/85 125/195/85
f 126/196/86 130/194/86 128/192/86
f 125/195/87 123/189/87 127/191/87
f 128/192/88 124/190/88 126/196/88
f 125/195/89 121/187/89 123/189/89
f 124/190/90 122/188/90 126/196/90
f 125/195/91 119/185/91 121/187/91
f 122/188/92 120/186/92 126/196/92
f 125/195/93 117/183/93 119/185/93
f 120/186/94 118/184/94 126/196/94
f 125/195/95 115/179/95 117/183/95
f 118/184/96 116/181/96 126/196/96
f 125/195/97 113/180/97 115/179/97
f 116/181/98 114/182/98 126/196/98
f 153/197/99 238/198/99 240/199/99 155/200/99
f 240/199/100 239/201/100 154/202/100 155/200/100
f 151/203/101 236/204/101 238/198/101 153/197/101
f 239/201/102 237/205/102 152/206/102 154/202/102
f 149/207/103 234/208/103 236/204/103 151/203/103
f 237/205/104 235/209/104 150/210/104 152/206/104
f 147/211/105 232/212/105 234/208/105 149/207/105
f 235/209/106 233/213/106 148/214/106 150/210/106
f 145/215/107 230/216/107 232/212/107 147/211/107
f 233/213/108 231/217/108 146/218/108 148/214/108
f 143/219/109 156/220/109 210/221/109 228/222/109
f 211/223/110 157/224/110 144/225/110 229/226/110
f 156/220/111 158/227/111 212/228/111 210/221/111
f 213/229/112 159/230/112 157/224/112 211/223/112
f 158/227/113 160/231/113 214/232/113 212/228/113
f 215/233/114 161/234/114 159/230/114 213/229/114
f 160/231/115 162/235/115 216/236/115 214/232/115
f 217/237/116 163/238/116 161/234/116 215/233/116
f 162/235/117 164/239/117 218/240/117 216/236/117
f 219/241/118 165/242/118 163/238/118 217/237/118
f 164/239/119 166/243/119 220/244/119 218/240/119
f 221/245/120 167/246/120 165/242/120 219/241/120
f 166/243/121 168/247/121 222/248/121 220/244/121
f 223/249/122 169/250/122 167/246/122 221/245/122
f 168/247/123 170/251/123 224/252/123 222/248/123
f 225/253/124 171/254/124 169/250/124 223/249/124
f 170/251/125 172/255/125 226/256/125 224/252/125
f 227/257/126 173/258/126 171/254/126 225/253/126
f 172/255/127 131/259/127 132/260/127 226/256/127
f 132/260/128 131/259/128 173/258/128 227/257/128
f 174/261/129 192/262/129 224/252/129 226/256/129
f 225/253/130 193/263/130 175/264/130 227/257/130
f 192/262/131 243/265/131 222/248/131 224/252/131
f 223/249/132 244/266/132 193/263/132 225/253/132
f 190/267/133 220/244/133 222/248/133 243/265/133
f 223/249/134 221/245/134 191/268/134 244/266/134
f 188/269/135 218/240/135 220/244/135 190/267/135
f 221/245/136 219/241/136 189/270/136 191/268/136
f 186/271/137 216/236/137 218/240/137 188/269/137
f 219/241/138 217/237/138 187/272/138 189/270/138
f 184/273/139 214/232/139 216/236/139 186/271/139
f 217/237/140 215/233/140 185/274/140 187/272/140
f 182/275/141 212/228/141 214/232/141 184/273/141
f 215/233/142 213/229/142 183/276/142 185/274/142
f 180/277/143 210/221/143 212/228/143 182/275/143
f 213/229/144 211/223/144 181/278/144 183/276/144
f 178/279/145 228/222/145 210/221/145 180/277/145
f 211/223/146 229/226/146 179/280/146 181/278/146
f 178/279/147 245/281/147 241/282/147 228/222/147
f 241/282/148 246/283/148 179/280/148 229/226/148
f 174/261/149 226/256/149 132/260/149 176/284/149
f 132/260/150 227/257/150 175/264/150 177/285/150
f 176/284/151 132/260/151 242/286/151 247/287/151
f 242/286/152 132/260/152 177/285/152 248/288/152
f 241/282/153 245/281/153 247/287/153 242/286/153
f 248/288/154 246/283/154 241/282/154 242/286/154
f 199/289/155 201/290/155 240/199/155 238/198/155
f 240/199/156 201/290/156 200/291/156 239/201/156
f 197/292/157 199/289/157 238/198/157 236/204/157
f 239/201/158 200/291/158 198/293/158 237/205/158
f 195/294/159 197/292/159 236/204/159 234/208/159
f 237/205/160 198/293/160 196/295/160 235/209/160
f 230/216/161 251/296/161 249/297/161 232/212/161
f 250/298/162 252/299/162 231/217/162 233/213/162
f 195/294/163 234/208/163 232/212/163 249/297/163
f 233/213/164 235/209/164 196/295/164 250/298/164
f 208/300/165 254/301/165 253/302/165 251/296/165
f 253/302/166 254/301/166 209/303/166 252/299/166
f 249/297/167 251/296/167 253/302/167 133/304/167
f 253/302/168 252/299/168 250/298/168 133/304/168
f 194/305/169 195/294/169 249/297/169 133/304/169
f 250/298/169 196/295/169 194/305/169 133/304/169
f 206/306/170 257/307/170 255/308/170 208/300/170
f 256/309/171 258/310/171 207/311/171 209/303/171
f 204/312/172 259/313/172 257/307/172 206/306/172
f 258/310/173 260/314/173 205/315/173 207/311/173
f 203/316/174 261/317/174 259/313/174 204/312/174
f 260/314/175 262/318/175 203/316/175 205/315/175
f 202/319/176 135/320/176 261/317/176 203/316/176
f 262/318/177 135/320/177 202/319/177 203/316/177
f 254/301/178 208/300/178 255/308/178 134/321/178
f 256/309/179 209/303/179 254/301/179 134/321/179
f 134/321/180 255/308/180 270/322/180 272/323/180
f 271/324/181 256/309/181 134/321/181 272/323/181
f 135/320/182 263/325/182 264/326/182 261/317/182
f 265/327/183 263/325/183 135/320/183 262/318/183
f 261/317/184 264/326/184 266/328/184 259/313/184
f 267/329/185 265/327/185 262/318/185 260/314/185
f 259/313/186 266/328/186 268/330/186 257/307/186
f 269/331/187 267/329/187 260/314/187 258/310/187
f 257/307/188 268/330/188 270/322/188 255/308/188
f 271/324/189 269/331/189 258/310/189 256/309/189
f 263/325/190 268/330/190 266/328/190 264/326/190
f 267/329/191 269/331/191 263/325/191 265/327/191
f 263/325/192 272/323/192 270/322/192 268/330/192
f 271/324/193 272/323/193 263/325/193 269/331/193
f 203/316/194 204/312/194 228/222/194 241/282/194
f 229/226/195 205/315/195 203/316/195 241/282/195
f 204/312/196 206/306/196 275/332/196 228/222/196
f 276/333/197 207/311/197 205/315/197 229/226/197
f 206/306/198 208/300/198 277/334/198 275/332/198
f 278/335/199 209/303/199 207/311/199 276/333/199
f 208/300/200 251/296/200 230/216/200 277/334/200
f 231/217/201 252/299/201 209/303/201 278/335/201
f 145/215/202 273/336/202 277/334/202 230/216/202
f 278/335/203 274/337/203 146/218/203 231/217/203
f 273/336/204 279/338/204 275/332/204 277/334/204
f 276/333/205 280/339/205 274/337/205 278/335/205
f 143/219/206 228/222/206 275/332/206 279/338/206
f 276/333/207 229/226/207 144/225/207 280/339/207
f 195/294/208 194/305/208 136/340/208 286/341/208
f 136/340/209 194/305/209 196/295/209 287/342/209
f 197/292/210 195/294/210 286/341/210 284/343/210
f 287/342/211 196/295/211 198/293/211 285/344/211
f 199/289/212 197/292/212 284/343/212 282/345/212
f 285/344/213 198/293/213 200/291/213 283/346/213
f 201/290/214 199/289/214 282/345/214 281/347/214
f 283/346/215 200/291/215 201/290/215 281/347/215
f 281/347/216 282/345/216 293/348/216 295/349/216
f 294/350/217 283/346/217 281/347/217 295/349/217
f 282/345/218 284/343/218 291/351/218 293/348/218
f 292/352/219 285/344/219 283/346/219 294/350/219
f 284/343/220 286/341/220 289/353/220 291/351/220
f 290/354/221 287/342/221 285/344/221 292/352/221
f 286/341/222 136/340/222 288/355/222 289/353/222
f 288/355/223 136/340/223 287/342/223 290/354/223
f 288/355/224 295/349/224 293/348/224 289/353/224
f 294/350/225 295/349/225 288/355/225 290/354/225
f 289/353/226 293/348/226 291/351/226
f 292/352/227 294/350/227 290/354/227
f 247/287/228 245/281/228 298/356/228 296/357/228
f 299/358/229 246/283/229 248/288/229 297/359/229
f 176/284/230 247/287/230 296/357/230 318/360/230
f 297/359/231 248/288/231 177/285/231 319/361/231
f 174/261/232 176/284/232 318/360/232 320/362/232
f 319/361/233 177/285/233 175/264/233 321/363/233
f 245/281/234 178/279/234 316/364/234 298/356/234
f 317/365/235 179/280/235 246/283/235 299/358/235
f 178/279/236 180/277/236 314/366/236 316/364/236
f 315/367/237 181/278/237 179/280/237 317/365/237
f 180/277/238 182/275/238 312/368/238 314/366/238
f 313/369/239 183/276/239 181/278/239 315/367/239
f 182/275/240 184/273/240 310/370/240 312/368/240
f 311/371/241 185/274/241 183/276/241 313/369/241
f 184/273/242 186/271/242 308/372/242 310/370/242
f 309/373/243 187/272/243 185/274/243 311/371/243
f 186/271/244 188/269/244 306/374/244 308/372/244
f 307/375/245 189/270/245 187/272/245 309/373/245
f 188/269/246 190/267/246 304/376/246 306/374/246
f 305/377/247 191/268/247 189/270/247 307/375/247
f 190/267/248 243/265/248 300/378/248 304/376/248
f 301/379/249 244/266/249 191/268/249 305/377/249
f 243/265/250 192/262/250 302/380/250 300/378/250
f 303/381/251 193/263/251 244/266/251 301/379/251
f 192/262/252 174/261/252 320/362/252 302/380/252
f 321/363/253 175/264/253 193/263/253 303/381/253
f 302/380/254 320/362/254 322/382/254 340/383/254
f 323/384/255 321/363/255 303/381/255 341/385/255
f 300/378/256 302/380/256 340/383/256 342/386/256
f 341/385/257 303/381/257 301/379/257 343/387/257
f 304/376/258 300/378/258 342/386/258 338/388/258
f 343/387/259 301/379/259 305/377/259 339/389/259
f 306/374/260 304/376/260 338/388/260 336/390/260
f 339/389/261 305/377/261 307/375/261 337/391/261
f 308/372/262 306/374/262 336/390/262 334/392/262
f 337/391/263 307/375/263 309/373/263 335/393/263
f 310/370/264 308/372/264 334/392/264 332/394/264
f 335/393/265 309/373/265 311/371/265 333/395/265
f 312/368/266 310/370/266 332/394/266 330/396/266
f 333/395/267 311/371/267 313/369/267 331/397/267
f 314/366/268 312/368/268 330/396/268 328/398/268
f 331/397/269 313/369/269 315/367/269 329/399/269
f 316/364/270 314/366/270 328/398/270 326/400/270
f 329/399/271 315/367/271 317/365/271 327/401/271
f 298/356/272 316/364/272 326/400/272 344/402/272
f 327/401/273 317/365/273 299/358/273 345/403/273
f 320/362/274 318/360/274 324/404/274 322/382/274
f 325/405/275 319/361/275 321/363/275 323/384/275
f 318/360/276 296/357/276 346/406/276 324/404/276
f 347/407/277 297/359/277 319/361/277 325/405/277
f 296/357/278 298/356/278 344/402/278 346/406/278
f 345/403/279 299/358/279 297/359/279 347/407/279
f 131/259/280 172/255/280 348/408/280 137/409/280
f 349/410/281 173/258/281 131/259/281 137/409/281
f 172/255/282 170/251/282 350/411/282 348/408/282
f 351/412/283 171/254/283 173/258/283 349/410/283
f 170/251/284 168/247/284 352/413/284 350/411/284
f 353/414/285 169/250/285 171/254/285 351/412/285
f 168/247/286 166/243/286 354/415/286 352/413/286
f 355/416/287 167/246/287 169/250/287 353/414/287
f 166/243/288 164/239/288 356/417/288 354/415/288
f 357/418/289 165/242/289 167/246/289 355/416/289
f 164/239/290 162/235/290 358/419/290 356/417/290
f 359/420/291 163/238/291 165/242/291 357/418/291
f 162/235/292 160/231/292 360/421/292 358/419/292
f 361/422/293 161/234/293 163/238/293 359/420/293
f 160/231/294 158/227/294 362/423/294 360/421/294
f 363/424/295 159/230/295 161/234/295 361/422/295
f 158/227/296 156/220/296 364/425/296 362/423/296
f 365/426/297 157/224/297 159/230/297 363/424/297
f 372/427/298 373/428/298 392/429/298 402/430/298
f 393/431/299 373/432/299 372/433/299 403/434/299
f 371/435/300 372/427/300 402/430/300 400/436/300
f 403/434/301 372/433/301 371/437/301 401/438/301
f 370/439/302 371/435/302 400/436/302 404/440/302
f 401/438/303 371/437/303 370/439/303 405/441/303
f 153/197/304 155/200/304 370/439/304 404/440/304
f 370/439/305 155/200/305 154/202/305 405/441/305
f 151/203/306 153/197/306 404/440/306 398/442/306
f 405/441/307 154/202/307 152/206/307 399/443/307
f 149/207/308 151/203/308 398/442/308 394/444/308
f 399/443/309 152/206/309 150/210/309 395/445/309
f 147/211/310 149/207/310 394/444/310 396/446/310
f 395/445/311 150/210/311 148/214/311 397/447/311
f 394/444/312 400/436/312 402/430/312 396/446/312
f 403/434/313 401/438/313 395/445/313 397/447/313
f 394/444/314 398/442/314 404/440/314 400/436/314
f 405/441/315 399/443/315 395/445/315 401/438/315
f 390/448/316 396/446/316 402/430/316 392/429/316
f 403/434/317 397/447/317 391/449/317 393/431/317
f 145/215/318 147/211/318 396/446/318 390/448/318
f 397/447/319 148/214/319 146/218/319 391/449/319
f 273/336/320 406/450/320 408/451/320 279/338/320
f 409/452/321 407/453/321 274/337/321 280/339/321
f 145/215/322 390/448/322 406/450/322 273/336/322
f 407/453/323 391/449/323 146/218/323 274/337/323
f 143/219/324 279/338/324 408/451/324 410/454/324
f 409/452/325 280/339/325 144/225/325 411/455/325
f 143/219/326 410/454/326 364/425/326 156/220/326
f 365/426/327 411/455/327 144/225/327 157/224/327
f 141/456/328 388/457/328 416/458/328 368/459/328
f 417/460/329 389/461/329 141/462/329 368/463/329
f 368/459/330 416/458/330 414/464/330 142/465/330
f 415/466/331 417/460/331 368/463/331 142/467/331
f 142/465/332 414/464/332 412/468/332 369/469/332
f 413/470/333 415/466/333 142/467/333 369/471/333
f 369/469/334 412/468/334 392/429/334 373/428/334
f 393/431/335 413/470/335 369/471/335 373/432/335
f 390/448/336 392/429/336 412/468/336 406/450/336
f 413/470/337 393/431/337 391/449/337 407/453/337
f 360/421/338 362/423/338 382/472/338 374/473/338
f 383/474/339 363/424/339 361/422/339 375/475/339
f 140/476/340 380/477/340 388/457/340 141/456/340
f 389/461/341 381/478/341 140/479/341 141/462/341
f 366/480/342 422/481/342 420/482/342 367/483/342
f 421/484/343 423/485/343 366/486/343 367/487/343
f 367/483/344 420/482/344 418/488/344 139/489/344
f 419/490/345 421/484/345 367/487/345 139/491/345
f 139/489/346 418/488/346 380/477/346 140/476/346
f 381/478/347 419/490/347 139/491/347 140/479/347
f 356/492/348 358/419/348 426/493/348 428/494/348
f 427/495/349 359/420/349 357/496/349 429/497/349
f 428/494/350 426/493/350 432/498/350 430/499/350
f 433/500/351 427/495/351 429/497/351 431/501/351
f 430/499/352 432/498/352 434/502/352 436/503/352
f 435/504/353 433/500/353 431/501/353 437/505/353
f 436/503/354 434/502/354 440/506/354 438/507/354
f 441/508/355 435/504/355 437/505/355 439/509/355
f 378/510/356 442/511/356 438/507/356 440/506/356
f 439/509/357 443/512/357 379/513/357 441/508/357
f 380/477/358 418/488/358 438/507/358 442/511/358
f 439/509/359 419/490/359 381/478/359 443/512/359
f 418/488/360 420/482/360 436/503/360 438/507/360
f 437/505/361 421/484/361 419/490/361 439/509/361
f 420/482/362 422/481/362 430/499/362 436/503/362
f 431/501/363 423/485/363 421/484/363 437/505/363
f 422/481/364 424/514/364 428/494/364 430/499/364
f 429/497/365 425/515/365 423/485/365 431/501/365
f 354/516/366 356/492/366 428/494/366 424/514/366
f 429/497/367 357/496/367 355/517/367 425/515/367
f 138/518/368 424/514/368 422/481/368 366/480/368
f 423/485/369 425/515/369 138/519/369 366/486/369
f 348/520/370 350/521/370 352/522/370 354/516/370
f 353/523/371 351/524/371 349/525/371 355/517/371
f 348/520/372 354/516/372 424/514/372 138/518/372
f 425/515/373 355/517/373 349/525/373 138/519/373
f 137/526/374 348/520/374 138/518/374
f 138/519/375 349/525/375 137/527/375
f 358/419/376 360/421/376 374/473/376 426/493/376
f 375/475/377 361/422/377 359/420/377 427/495/377
f 374/473/378 376/528/378 432/498/378 426/493/378
f 433/500/379 377/529/379 375/475/379 427/495/379
f 376/528/380 446/530/380 434/502/380 432/498/380
f 435/504/381 447/531/381 377/529/381 433/500/381
f 378/510/382 440/506/382 434/502/382 446/530/382
f 435/504/383 441/508/383 379/513/383 447/531/383
f 412/468/384 414/464/384 450/532/384 448/533/384
f 451/534/385 415/466/385 413/470/385 449/535/385
f 382/472/386 448/533/386 450/532/386 384/536/386
f 451/534/387 449/535/387 383/474/387 385/537/387
f 362/423/388 364/425/388 448/533/388 382/472/388
f 449/535/389 365/426/389 363/424/389 383/474/389
f 364/425/390 408/451/390 406/450/390 448/533/390
f 407/453/391 409/452/391 365/426/391 449/535/391
f 406/450/392 412/468/392 448/533/392
f 449/535/393 413/470/393 407/453/393
f 364/425/394 410/454/394 408/451/394
f 409/452/395 411/455/395 365/426/395
f 378/510/396 386/538/396 444/539/396 442/511/396
f 445/540/397 387/541/397 379/513/397 443/512/397
f 380/477/398 442/511/398 444/539/398 388/457/398
f 445/540/399 443/512/399 381/478/399 389/461/399
f 384/536/400 450/532/400 444/539/400 386/538/400
f 445/540/401 451/534/401 385/537/401 387/541/401
f 414/464/402 416/458/402 444/539/402 450/532/402
f 445/540/403 417/460/403 415/466/403 451/534/403
f 388/457/404 444/539/404 416/458/404
f 417/460/405 445/540/405 389/461/405
f 464/542/406 452/543/406 478/544/406 466/545/406
f 479/546/407 453/547/407 465/548/407 467/549/407
f 464/542/408 466/545/408 468/550/408 462/551/408
f 469/552/409 467/549/409 465/548/409 463/553/409
f 462/551/410 468/550/410 470/554/410 460/555/410
f 471/556/411 469/552/411 463/553/411 461/557/411
f 460/555/412 470/554/412 472/558/412 458/559/412
f 473/560/413 471/556/413 461/557/413 459/561/413
f 458/559/414 472/558/414 474/562/414 456/563/414
f 475/564/415 473/560/415 459/561/415 457/565/415
f 456/563/416 474/562/416 476/566/416 454/567/416
f 477/568/417 475/564/417 457/565/417 455/569/417
f 474/562/418 484/570/418 482/571/418 476/566/418
f 483/572/419 485/573/419 475/564/419 477/568/419
f 472/558/420 486/574/420 484/570/420 474/562/420
f 485/573/421 487/575/421 473/560/421 475/564/421
f 470/554/422 488/576/422 486/574/422 472/558/422
f 487/575/423 489/577/423 471/556/423 473/560/423
f 468/550/424 490/578/424 488/576/424 470/554/424
f 489/577/425 491/579/425 469/552/425 471/556/425
f 466/545/426 492/580/426 490/578/426 468/550/426
f 491/579/427 493/581/427 467/549/427 469/552/427
f 466/545/428 478/544/428 480/582/428 492/580/428
f 481/583/429 479/546/429 467/549/429 493/581/429
f 382/472/430 384/536/430 508/584/430 506/585/430
f 509/586/431 385/537/431 383/474/431 507/587/431
f 384/588/432 454/567/432 476/566/432 508/589/432
f 477/568/433 455/569/433 385/590/433 509/591/433
f 374/473/434 382/472/434 506/585/434 376/528/434
f 507/587/435 383/474/435 375/475/435 377/529/435
f 446/592/436 494/593/436 478/544/436 452/543/436
f 479/546/437 495/594/437 447/595/437 453/547/437
f 476/566/438 482/571/438 504/596/438 508/589/438
f 505/597/439 483/572/439 477/568/439 509/591/439
f 502/598/440 510/599/440 508/589/440 504/596/440
f 509/591/441 511/600/441 503/601/441 505/597/441
f 498/602/442 510/599/442 502/598/442 500/603/442
f 503/601/443 511/600/443 499/604/443 501/605/443
f 496/606/444 512/607/444 510/599/444 498/602/444
f 511/600/445 513/608/445 497/609/445 499/604/445
f 494/593/446 512/607/446 496/606/446 514/610/446
f 497/609/447 513/608/447 495/594/447 515/611/447
f 478/544/448 494/593/448 514/610/448 480/582/448
f 515/611/449 495/594/449 479/546/449 481/583/449
f 376/528/450 512/612/450 494/613/450 446/530/450
f 495/614/451 513/615/451 377/529/451 447/531/451
f 376/528/452 506/585/452 510/616/452 512/612/452
f 511/617/453 507/587/453 377/529/453 513/615/453
f 506/585/454 508/584/454 510/616/454
f 511/617/455 509/586/455 507/587/455
f 480/582/456 514/610/456 516/618/456 540/619/456
f 517/620/457 515/611/457 481/583/457 541/621/457
f 514/610/458 496/606/458 526/622/458 516/618/458
f 527/623/459 497/609/459 515/611/459 517/620/459
f 496/606/460 498/602/460 524/624/460 526/622/460
f 525/625/461 499/604/461 497/609/461 527/623/461
f 498/602/462 500/603/462 522/626/462 524/624/462
f 523/627/463 501/605/463 499/604/463 525/625/463
f 500/603/464 502/598/464 520/628/464 522/626/464
f 521/629/465 503/601/465 501/605/465 523/627/465
f 502/598/466 504/596/466 518/630/466 520/628/466
f 519/631/467 505/597/467 503/601/467 521/629/467
f 504/596/468 482/571/468 538/632/468 518/630/468
f 539/633/469 483/572/469 505/597/469 519/631/469
f 492/580/470 480/582/470 540/619/470 528/634/470
f 541/621/471 481/583/471 493/581/471 529/635/471
f 490/578/472 492/580/472 528/634/472 530/636/472
f 529/635/473 493/581/473 491/579/473 531/637/473
f 488/576/474 490/578/474 530/636/474 532/638/474
f 531/637/475 491/579/475 489/577/475 533/639/475
f 486/574/476 488/576/476 532/638/476 534/640/476
f 533/639/477 489/577/477 487/575/477 535/641/477
f 484/570/478 486/574/478 534/640/478 536/642/478
f 535/641/479 487/575/479 485/573/479 537/643/479
f 482/571/480 484/570/480 536/642/480 538/632/480
f 537/643/481 485/573/481 483/572/481 539/633/481
f 522/626/482 520/628/482 544/644/482 542/645/482
f 545/646/483 521/629/483 523/627/483 543/647/483
f 542/645/484 544/644/484 546/648/484 548/649/484
f 547/650/485 545/646/485 543/647/485 549/651/485
f 548/649/486 546/648/486 552/652/486 550/653/486
f 553/654/487 547/650/487 549/651/487 551/655/487
f 550/653/488 552/652/488 554/656/488 556/657/488
f 555/658/489 553/654/489 551/655/489 557/659/489
f 528/634/490 540/619/490 550/653/490 556/657/490
f 551/655/491 541/621/491 529/635/491 557/659/491
f 516/618/492 548/649/492 550/653/492 540/619/492
f 551/655/493 549/651/493 517/620/493 541/621/493
f 516/618/494 526/622/494 542/645/494 548/649/494
f 543/647/495 527/623/495 517/620/495 549/651/495
f 522/626/496 542/645/496 526/622/496 524/624/496
f 527/623/497 543/647/497 523/627/497 525/625/497
f 518/630/498 538/632/498 544/644/498 520/628/498
f 545/646/499 539/633/499 519/631/499 521/629/499
f 536/642/500 546/648/500 544/644/500 538/632/500
f 545/646/501 547/650/501 537/643/501 539/633/501
f 534/640/502 552/652/502 546/648/502 536/642/502
f 547/650/503 553/654/503 535/641/503 537/643/503
f 532/638/504 554/656/504 552/652/504 534/640/504
f 553/654/505 555/658/505 533/639/505 535/641/505
f 530/636/506 556/657/506 554/656/506 532/638/506
f 555/658/507 557/659/507 531/637/507 533/639/507
f 528/634/508 556/657/508 530/636/508
f 531/637/509 557/659/509 529/635/509
f 456/563/510 454/567/510 568/660/510 566/661/510
f 569/662/511 455/569/511 457/565/511 567/663/511
f 458/559/512 456/563/512 566/661/512 564/664/512
f 567/663/513 457/565/513 459/561/513 565/665/513
f 460/555/514 458/559/514 564/664/514 562/666/514
f 565/665/515 459/561/515 461/557/515 563/667/515
f 462/668/516 460/555/516 562/666/516 560/669/516
f 563/667/517 461/557/517 463/670/517 561/671/517
f 464/672/518 462/668/518 560/669/518 558/673/518
f 561/671/519 463/670/519 465/674/519 559/675/519
f 452/676/520 464/672/520 558/673/520 570/677/520
f 559/675/521 465/674/521 453/678/521 571/679/521
f 558/673/522 566/661/522 568/660/522 570/677/522
f 569/662/523 567/663/523 559/675/523 571/679/523
f 558/673/524 560/669/524 564/664/524 566/661/524
f 565/665/525 561/671/525 559/675/525 567/663/525
f 560/669/526 562/666/526 564/664/526
f 565/665/527 563/667/527 561/671/527
f 378/680/528 446/681/528 452/676/528 570/677/528
f 453/678/529 447/682/529 379/683/529 571/679/529
f 378/680/530 570/677/530 568/660/530 386/684/530
f 569/662/531 571/679/531 379/683/531 387/685/531
f 384/588/532 386/684/532 568/660/532 454/567/532
f 569/662/533 387/685/533 385/590/533 455/569/533
